<svg xmlns="http://www.w3.org/2000/svg" xmlns:xlink="http://www.w3.org/1999/xlink" width="500" zoomAndPan="magnify" viewBox="0 0 375 374.999991" height="500" preserveAspectRatio="xMidYMid meet" version="1.0"><defs><g/><clipPath id="fc7e638b33"><path d="M 315 54 L 330.351562 54 L 330.351562 94 L 315 94 Z M 315 54 " clip-rule="nonzero"/></clipPath><clipPath id="74f547db7c"><path d="M 44.601562 52 L 62 52 L 62 90 L 44.601562 90 Z M 44.601562 52 " clip-rule="nonzero"/></clipPath><clipPath id="279e5fb144"><path d="M 249 50.03125 L 282 50.03125 L 282 141 L 249 141 Z M 249 50.03125 " clip-rule="nonzero"/></clipPath><clipPath id="38c2f782bb"><path d="M 163.421875 267.308594 L 187 267.308594 L 187 320.28125 L 163.421875 320.28125 Z M 163.421875 267.308594 " clip-rule="nonzero"/></clipPath></defs><rect x="-37.5" width="450" fill="#ffffff" y="-37.499999" height="449.999989" fill-opacity="1"/><rect x="-37.5" width="450" fill="#70060f" y="-37.499999" height="449.999989" fill-opacity="1"/><path fill="#f6e9c1" d="M 120.445312 93.285156 C 120.210938 91.566406 119.882812 89.875 119.480469 88.199219 C 119.207031 87.042969 118.894531 85.894531 118.542969 84.761719 C 118.542969 84.757812 118.539062 84.753906 118.539062 84.75 C 118.515625 84.667969 118.492188 84.589844 118.46875 84.507812 C 116.464844 78.003906 113.464844 71.792969 110.457031 65.710938 C 109.214844 63.195312 107.929688 60.703125 106.605469 58.234375 C 105.949219 57.003906 105.292969 55.773438 104.597656 54.5625 C 104.429688 54.265625 104.253906 53.972656 104.070312 53.683594 C 103.929688 53.460938 103.929688 53.402344 103.699219 53.335938 C 102.976562 53.128906 102.234375 52.984375 101.492188 52.851562 C 101.480469 52.847656 101.46875 52.855469 101.460938 52.863281 C 98.304688 58.3125 96.054688 64.265625 94.792969 70.433594 C 93.53125 76.597656 93.25 82.964844 94.019531 89.207031 C 94.855469 95.988281 96.902344 102.652344 99.289062 109.03125 C 100.464844 112.179688 101.820312 115.269531 103.496094 118.1875 C 105.121094 121.027344 107.042969 123.683594 109.109375 126.21875 C 113.472656 131.578125 118.355469 136.554688 123.335938 141.339844 C 123.964844 141.941406 124.597656 142.542969 125.234375 143.140625 C 125.253906 143.160156 125.285156 143.140625 125.28125 143.113281 C 123.785156 136.453125 122.292969 129.773438 121.671875 122.964844 C 120.800781 113.09375 121.789062 103.125 120.445312 93.285156 " fill-opacity="1" fill-rule="nonzero"/><path fill="#f6e9c1" d="M 154.46875 104.292969 C 154.46875 104.289062 154.46875 104.285156 154.46875 104.285156 C 154.457031 104.203125 154.445312 104.117188 154.429688 104.03125 C 153.453125 97.300781 151.4375 90.703125 149.394531 84.226562 C 148.550781 81.554688 147.664062 78.894531 146.734375 76.25 C 146.273438 74.9375 145.8125 73.617188 145.316406 72.316406 C 145.191406 71.996094 145.066406 71.679688 144.925781 71.367188 C 144.820312 71.125 144.828125 71.066406 144.613281 70.964844 C 143.929688 70.648438 143.21875 70.390625 142.507812 70.148438 C 142.496094 70.144531 142.480469 70.144531 142.472656 70.15625 C 138.519531 75.054688 135.386719 80.59375 133.191406 86.496094 C 131.003906 92.394531 129.75 98.644531 129.554688 104.933594 C 129.34375 111.757812 130.34375 118.65625 131.722656 125.328125 C 132.40625 128.621094 133.269531 131.878906 134.480469 135.023438 C 135.652344 138.074219 137.140625 140.996094 138.792969 143.816406 C 142.285156 149.78125 146.351562 155.445312 150.539062 160.9375 C 151.066406 161.628906 151.597656 162.320312 152.136719 163.007812 C 152.15625 163.03125 152.1875 163.015625 152.1875 162.988281 C 151.730469 156.179688 151.277344 149.351562 151.710938 142.527344 C 152.359375 132.636719 154.863281 122.9375 155.039062 113.007812 C 155.070312 111.273438 155.007812 109.550781 154.867188 107.832031 C 154.773438 106.648438 154.640625 105.464844 154.46875 104.292969 " fill-opacity="1" fill-rule="nonzero"/><path fill="#f6e9c1" d="M 85.632812 74.59375 C 85.386719 72.578125 85.003906 70.535156 84.25 68.738281 C 83.464844 66.863281 82.289062 65.496094 80.855469 64.726562 C 80.089844 64.316406 79.292969 64.066406 78.496094 63.863281 C 77.585938 63.636719 76.667969 63.449219 75.75 63.273438 C 72.371094 62.625 68.550781 62.460938 65.859375 65.664062 C 63.449219 68.53125 63.191406 73.261719 63.445312 77.511719 C 63.765625 82.882812 64.589844 88.261719 65.695312 93.464844 C 66.777344 98.542969 68.125 103.554688 70.160156 108.089844 C 71.085938 110.15625 72.132812 112.117188 73.285156 113.949219 C 73.875 114.886719 74.496094 115.792969 75.140625 116.660156 C 75.746094 117.476562 76.367188 118.289062 77.074219 118.929688 C 77.625 119.429688 78.226562 119.800781 78.867188 119.917969 C 78.804688 119.960938 78.742188 119.996094 78.679688 120.035156 C 78.65625 120.046875 78.667969 120.097656 78.691406 120.085938 C 78.71875 120.070312 78.746094 120.050781 78.773438 120.035156 L 79.09375 119.949219 C 79.117188 119.953125 79.140625 119.957031 79.167969 119.957031 C 79.191406 119.957031 79.1875 119.90625 79.164062 119.902344 C 79.109375 119.902344 79.054688 119.894531 79 119.890625 C 80.285156 119.019531 81.285156 117.535156 82.070312 115.886719 C 82.960938 114.015625 83.648438 111.925781 84.222656 109.816406 C 85.414062 105.417969 86.035156 100.726562 86.289062 95.992188 C 86.546875 91.160156 86.4375 86.28125 86.164062 81.425781 C 86.03125 79.148438 85.90625 76.855469 85.632812 74.59375 " fill-opacity="1" fill-rule="nonzero"/><g clip-path="url(#fc7e638b33)"><path fill="#f6e9c1" d="M 329.398438 61.253906 C 328.636719 58.945312 327.367188 56.855469 325.628906 55.101562 C 325.523438 54.996094 325.414062 54.890625 325.308594 54.785156 C 325.238281 54.71875 325.214844 54.6875 325.167969 54.671875 C 325.164062 54.671875 325.164062 54.671875 325.160156 54.667969 C 325.160156 54.667969 325.15625 54.667969 325.15625 54.667969 C 325.125 54.660156 325.082031 54.660156 325.015625 54.660156 C 325.011719 54.660156 325.003906 54.664062 325.003906 54.667969 C 324.515625 55.152344 324.1875 55.699219 323.886719 56.246094 C 323.527344 56.890625 323.179688 57.539062 322.839844 58.1875 C 322.148438 59.5 321.488281 60.816406 320.851562 62.132812 C 319.625 64.667969 318.417969 67.234375 317.628906 69.789062 C 317.40625 70.519531 317.234375 71.238281 317.097656 71.949219 C 317.09375 71.976562 317.089844 72 317.085938 72.023438 C 317.066406 72.117188 317.050781 72.214844 317.035156 72.308594 C 317.019531 72.40625 317.003906 72.5 316.988281 72.601562 C 316.980469 72.640625 316.972656 72.683594 316.96875 72.722656 C 316.949219 72.839844 316.933594 72.960938 316.917969 73.078125 C 316.910156 73.117188 316.90625 73.15625 316.902344 73.195312 C 316.890625 73.285156 316.878906 73.375 316.871094 73.464844 C 316.859375 73.554688 316.847656 73.640625 316.839844 73.730469 C 316.839844 73.742188 316.839844 73.753906 316.839844 73.765625 C 316.714844 74.972656 316.6875 76.167969 316.714844 77.351562 C 316.773438 79.867188 317.035156 82.332031 316.945312 84.882812 C 316.851562 87.480469 316.339844 90.144531 315.78125 92.8125 C 315.710938 93.144531 315.640625 93.476562 315.570312 93.808594 C 315.566406 93.820312 315.582031 93.824219 315.59375 93.8125 C 318.109375 91.179688 320.542969 88.484375 322.757812 85.714844 C 323.796875 84.410156 324.777344 83.078125 325.605469 81.714844 C 326.453125 80.324219 327.125 78.902344 327.683594 77.480469 C 328.269531 76.003906 328.757812 74.515625 329.179688 73.039062 C 329.605469 71.5625 329.945312 70.089844 330.105469 68.644531 C 330.402344 66.046875 330.152344 63.542969 329.398438 61.253906 " fill-opacity="1" fill-rule="nonzero"/></g><g clip-path="url(#74f547db7c)"><path fill="#f6e9c1" d="M 61.109375 53.019531 C 61.109375 53.015625 61.109375 53.011719 61.101562 53.007812 C 61.054688 52.96875 61.019531 52.945312 60.992188 52.933594 C 60.992188 52.933594 60.988281 52.933594 60.988281 52.933594 C 60.984375 52.933594 60.984375 52.933594 60.984375 52.933594 C 60.9375 52.917969 60.898438 52.929688 60.808594 52.945312 C 60.660156 52.96875 60.515625 52.996094 60.371094 53.019531 C 58.007812 53.472656 55.804688 54.457031 53.867188 55.902344 C 51.945312 57.339844 50.28125 59.226562 48.988281 61.492188 C 48.261719 62.757812 47.660156 64.136719 47.117188 65.566406 C 46.578125 67 46.078125 68.476562 45.660156 69.996094 C 45.253906 71.460938 44.9375 72.984375 44.773438 74.582031 C 44.609375 76.148438 44.578125 77.773438 44.613281 79.40625 C 44.6875 82.882812 44.980469 86.421875 45.367188 89.957031 C 45.367188 89.96875 45.382812 89.976562 45.386719 89.964844 C 45.527344 89.65625 45.667969 89.347656 45.8125 89.042969 C 46.941406 86.570312 48.117188 84.125 49.570312 81.972656 C 50.996094 79.855469 52.644531 78.003906 54.164062 76.003906 C 54.882812 75.0625 55.558594 74.078125 56.175781 73.03125 C 56.179688 73.023438 56.1875 73.007812 56.195312 73 C 56.238281 72.921875 56.28125 72.847656 56.324219 72.769531 C 56.371094 72.691406 56.414062 72.613281 56.460938 72.53125 C 56.480469 72.496094 56.496094 72.464844 56.515625 72.429688 C 56.574219 72.324219 56.632812 72.21875 56.6875 72.113281 C 56.707031 72.074219 56.726562 72.039062 56.746094 72 C 56.789062 71.914062 56.835938 71.828125 56.878906 71.742188 C 56.921875 71.652344 56.964844 71.566406 57.007812 71.480469 C 57.015625 71.460938 57.027344 71.4375 57.039062 71.414062 C 57.355469 70.761719 57.644531 70.082031 57.898438 69.371094 C 58.792969 66.863281 59.371094 64.113281 59.917969 61.378906 C 60.203125 59.957031 60.464844 58.523438 60.707031 57.074219 C 60.824219 56.359375 60.9375 55.644531 61.042969 54.921875 C 61.132812 54.3125 61.199219 53.683594 61.109375 53.019531 " fill-opacity="1" fill-rule="nonzero"/></g><path fill="#f6e9c1" d="M 185.53125 119.496094 C 185.433594 116.808594 185.332031 114.121094 185.230469 111.4375 C 185.183594 110.136719 185.132812 108.835938 185.085938 107.53125 C 184.992188 105.03125 184.894531 102.5 184.25 100.066406 C 183.617188 97.679688 182.484375 95.46875 181.390625 93.269531 C 180.199219 90.875 179.007812 88.484375 177.816406 86.089844 C 177.519531 85.5 177.226562 84.910156 176.933594 84.320312 C 176.785156 84.027344 176.640625 83.734375 176.492188 83.4375 C 176.359375 83.164062 176.242188 82.863281 176.046875 82.636719 C 175.839844 82.40625 175.625 82.191406 175.4375 81.945312 C 175.308594 81.78125 175.203125 81.84375 175 81.894531 C 174.53125 82.015625 174.113281 82.277344 173.738281 82.574219 C 172.859375 83.265625 172.074219 84.105469 171.296875 84.90625 C 170.511719 85.714844 169.753906 86.554688 169.027344 87.414062 C 167.59375 89.105469 166.277344 90.898438 165.128906 92.796875 C 163.992188 94.667969 163.019531 96.644531 162.257812 98.699219 C 161.394531 101.039062 160.835938 103.472656 160.417969 105.925781 C 159.984375 108.453125 159.679688 111 159.34375 113.539062 C 158.988281 116.203125 158.632812 118.867188 158.277344 121.535156 C 158.105469 122.847656 157.929688 124.160156 157.757812 125.472656 C 157.585938 126.769531 157.398438 128.066406 157.351562 129.375 C 157.308594 130.582031 157.410156 131.785156 157.726562 132.957031 C 158.011719 134.007812 158.445312 135.011719 158.960938 135.964844 C 159.519531 136.996094 160.171875 137.972656 160.851562 138.925781 C 161.488281 139.8125 162.128906 140.707031 162.824219 141.550781 C 163.515625 142.382812 164.3125 143.109375 165.320312 143.53125 C 166.316406 143.949219 167.417969 144.078125 168.488281 144.035156 C 172.761719 143.875 176.457031 141.304688 179.511719 138.527344 C 180.320312 137.785156 181.105469 137.019531 181.875 136.242188 C 182.644531 135.460938 183.429688 134.683594 184.09375 133.816406 C 184.789062 132.902344 185.285156 131.890625 185.535156 130.769531 C 185.789062 129.648438 185.824219 128.488281 185.804688 127.335938 C 185.765625 124.722656 185.625 122.109375 185.53125 119.496094 " fill-opacity="1" fill-rule="nonzero"/><g clip-path="url(#279e5fb144)"><path fill="#f6e9c1" d="M 273.425781 50.246094 C 273.421875 50.234375 273.40625 50.230469 273.394531 50.234375 C 272.65625 50.367188 271.914062 50.511719 271.191406 50.71875 C 270.957031 50.789062 270.960938 50.84375 270.816406 51.070312 C 270.632812 51.355469 270.457031 51.648438 270.289062 51.945312 C 269.597656 53.15625 268.941406 54.390625 268.28125 55.617188 C 266.957031 58.085938 265.675781 60.582031 264.433594 63.09375 C 261.421875 69.175781 258.421875 75.390625 256.425781 81.890625 C 256.398438 81.972656 256.371094 82.050781 256.347656 82.132812 C 256.347656 82.136719 256.347656 82.140625 256.347656 82.144531 C 255.996094 83.28125 255.683594 84.425781 255.410156 85.582031 C 255.007812 87.257812 254.679688 88.953125 254.445312 90.671875 C 253.101562 100.511719 254.089844 110.480469 253.214844 120.351562 C 252.597656 127.160156 251.105469 133.839844 249.613281 140.496094 C 249.605469 140.523438 249.636719 140.542969 249.660156 140.523438 C 250.292969 139.925781 250.925781 139.328125 251.554688 138.722656 C 256.535156 133.9375 261.417969 128.960938 265.78125 123.601562 C 267.84375 121.066406 269.765625 118.410156 271.394531 115.574219 C 273.066406 112.652344 274.421875 109.5625 275.597656 106.414062 C 277.988281 100.035156 280.03125 93.371094 280.867188 86.59375 C 281.636719 80.347656 281.355469 73.980469 280.09375 67.816406 C 278.832031 61.648438 276.582031 55.695312 273.425781 50.246094 " fill-opacity="1" fill-rule="nonzero"/></g><path fill="#f6e9c1" d="M 244.488281 72.945312 C 242.238281 66.238281 238.980469 59.957031 234.847656 54.417969 C 234.839844 54.40625 234.824219 54.40625 234.8125 54.410156 C 234.054688 54.695312 233.296875 55 232.566406 55.371094 C 232.335938 55.488281 232.34375 55.550781 232.226562 55.832031 C 232.078125 56.191406 231.9375 56.554688 231.804688 56.917969 C 231.261719 58.410156 230.753906 59.921875 230.246094 61.425781 C 229.226562 64.453125 228.253906 67.5 227.324219 70.5625 C 225.074219 77.976562 222.855469 85.527344 221.730469 93.226562 C 221.714844 93.316406 221.703125 93.410156 221.6875 93.5 C 221.6875 93.507812 221.6875 93.515625 221.683594 93.523438 C 221.492188 94.863281 221.332031 96.214844 221.21875 97.566406 C 221.046875 99.527344 220.957031 101.496094 220.96875 103.476562 C 221.035156 114.804688 223.566406 125.839844 224.128906 137.117188 C 224.5 144.894531 223.933594 152.695312 223.363281 160.46875 C 223.359375 160.5 223.394531 160.515625 223.414062 160.492188 C 223.992188 159.699219 224.566406 158.90625 225.136719 158.109375 C 229.652344 151.789062 234.035156 145.273438 237.816406 138.421875 C 239.601562 135.183594 241.222656 131.832031 242.507812 128.332031 C 243.828125 124.734375 244.789062 121.003906 245.550781 117.234375 C 247.101562 109.609375 248.253906 101.726562 248.113281 93.9375 C 247.988281 86.761719 246.738281 79.648438 244.488281 72.945312 " fill-opacity="1" fill-rule="nonzero"/><path fill="#f6e9c1" d="M 299.136719 60.65625 C 298.222656 60.832031 297.300781 61.019531 296.390625 61.25 C 295.59375 61.445312 294.796875 61.703125 294.03125 62.109375 C 292.597656 62.878906 291.421875 64.246094 290.636719 66.121094 C 289.882812 67.914062 289.5 69.960938 289.253906 71.976562 C 288.980469 74.238281 288.855469 76.535156 288.726562 78.808594 C 288.449219 83.664062 288.339844 88.546875 288.597656 93.375 C 288.851562 98.109375 289.472656 102.804688 290.664062 107.199219 C 291.238281 109.308594 291.925781 111.398438 292.816406 113.269531 C 293.605469 114.917969 294.601562 116.402344 295.886719 117.273438 C 295.832031 117.28125 295.777344 117.285156 295.722656 117.285156 C 295.699219 117.289062 295.695312 117.339844 295.71875 117.339844 C 295.746094 117.339844 295.769531 117.335938 295.796875 117.332031 L 296.117188 117.417969 C 296.144531 117.4375 296.171875 117.453125 296.199219 117.46875 C 296.21875 117.480469 296.230469 117.429688 296.207031 117.417969 C 296.144531 117.378906 296.082031 117.34375 296.019531 117.300781 C 296.660156 117.1875 297.261719 116.8125 297.8125 116.3125 C 298.519531 115.671875 299.140625 114.859375 299.746094 114.042969 C 300.390625 113.179688 301.011719 112.273438 301.601562 111.332031 C 302.753906 109.5 303.800781 107.539062 304.726562 105.472656 C 306.761719 100.9375 308.109375 95.925781 309.191406 90.847656 C 310.292969 85.644531 311.117188 80.265625 311.441406 74.894531 C 311.695312 70.644531 311.4375 65.914062 309.027344 63.046875 C 306.335938 59.84375 302.515625 60.007812 299.136719 60.65625 " fill-opacity="1" fill-rule="nonzero"/><path fill="#f6e9c1" d="M 216.15625 125.382812 C 216.074219 122.695312 215.992188 120.007812 215.910156 117.316406 C 215.828125 114.757812 215.78125 112.195312 215.605469 109.636719 C 215.4375 107.15625 215.128906 104.675781 214.507812 102.261719 C 213.960938 100.140625 213.191406 98.078125 212.25 96.097656 C 211.296875 94.09375 210.167969 92.179688 208.914062 90.351562 C 208.277344 89.421875 207.605469 88.511719 206.90625 87.625 C 206.214844 86.75 205.519531 85.835938 204.71875 85.058594 C 204.375 84.726562 203.984375 84.425781 203.53125 84.257812 C 203.332031 84.183594 203.234375 84.113281 203.09375 84.261719 C 202.875 84.488281 202.640625 84.679688 202.417969 84.886719 C 202.191406 85.09375 202.050781 85.382812 201.890625 85.636719 C 201.714844 85.917969 201.539062 86.195312 201.359375 86.472656 C 201.011719 87.03125 200.65625 87.585938 200.308594 88.144531 C 198.878906 90.40625 197.453125 92.664062 196.023438 94.925781 C 194.710938 97.003906 193.359375 99.089844 192.492188 101.398438 C 191.605469 103.753906 191.253906 106.261719 190.90625 108.742188 C 190.726562 110.03125 190.546875 111.320312 190.363281 112.613281 C 189.992188 115.273438 189.625 117.9375 189.253906 120.601562 C 188.894531 123.1875 188.492188 125.777344 188.1875 128.371094 C 188.050781 129.511719 187.96875 130.671875 188.109375 131.816406 C 188.246094 132.957031 188.636719 134.015625 189.234375 134.988281 C 189.804688 135.921875 190.511719 136.777344 191.195312 137.625 C 191.886719 138.480469 192.585938 139.324219 193.320312 140.140625 C 196.074219 143.214844 199.488281 146.144531 203.722656 146.738281 C 204.789062 146.886719 205.894531 146.867188 206.929688 146.554688 C 207.972656 146.238281 208.839844 145.59375 209.609375 144.835938 C 210.390625 144.070312 211.117188 143.242188 211.835938 142.425781 C 212.613281 141.546875 213.359375 140.640625 214.019531 139.671875 C 214.628906 138.773438 215.164062 137.816406 215.554688 136.804688 C 215.984375 135.671875 216.207031 134.480469 216.285156 133.273438 C 216.375 131.972656 216.320312 130.660156 216.28125 129.355469 C 216.238281 128.03125 216.199219 126.707031 216.15625 125.382812 " fill-opacity="1" fill-rule="nonzero"/><path fill="#f6e9c1" d="M 235.207031 260.609375 C 235.042969 260.273438 234.882812 259.9375 234.714844 259.601562 C 234.882812 259.9375 235.042969 260.273438 235.207031 260.609375 " fill-opacity="1" fill-rule="nonzero"/><g clip-path="url(#38c2f782bb)"><path fill="#f6e9c1" d="M 185.523438 276.273438 C 184.980469 275.535156 184.335938 274.878906 183.707031 274.21875 C 183.078125 273.558594 182.4375 272.910156 181.777344 272.285156 C 179.277344 269.929688 176.257812 267.753906 172.761719 267.621094 C 171.882812 267.582031 170.988281 267.691406 170.167969 268.046875 C 169.347656 268.402344 168.695312 269.019531 168.128906 269.726562 C 167.558594 270.4375 167.035156 271.195312 166.515625 271.945312 C 165.957031 272.75 165.425781 273.578125 164.96875 274.453125 C 164.546875 275.261719 164.191406 276.109375 163.957031 277 C 163.699219 277.988281 163.617188 279.007812 163.652344 280.03125 C 163.691406 281.140625 163.839844 282.238281 163.980469 283.335938 C 164.125 284.445312 164.265625 285.558594 164.410156 286.667969 C 164.699219 288.925781 164.992188 291.1875 165.28125 293.441406 C 165.554688 295.59375 165.808594 297.75 166.160156 299.886719 C 166.503906 301.964844 166.957031 304.027344 167.664062 306.003906 C 168.285156 307.746094 169.082031 309.417969 170.011719 311.003906 C 170.953125 312.609375 172.027344 314.128906 173.199219 315.5625 C 173.796875 316.292969 174.417969 316.996094 175.058594 317.683594 C 175.695312 318.363281 176.335938 319.074219 177.054688 319.660156 C 177.363281 319.910156 177.703125 320.132812 178.085938 320.234375 C 178.25 320.277344 178.339844 320.332031 178.441406 320.191406 C 178.597656 319.984375 178.773438 319.800781 178.941406 319.605469 C 179.105469 319.414062 179.195312 319.160156 179.308594 318.929688 C 179.429688 318.679688 179.546875 318.429688 179.667969 318.183594 C 179.90625 317.683594 180.144531 317.183594 180.386719 316.683594 C 181.363281 314.65625 182.335938 312.628906 183.3125 310.601562 C 184.207031 308.742188 185.136719 306.867188 185.652344 304.847656 C 186.109375 303.042969 186.230469 301.171875 186.304688 299.3125 C 186.28125 299.269531 186.265625 299.21875 186.265625 299.15625 C 186.257812 298.898438 186.246094 298.648438 186.339844 298.421875 C 186.347656 298.148438 186.359375 297.878906 186.367188 297.609375 C 186.242188 296.777344 186.234375 295.921875 186.371094 295.054688 C 186.402344 294.859375 186.4375 294.664062 186.480469 294.46875 C 186.554688 292.445312 186.625 290.421875 186.699219 288.398438 C 186.777344 286.183594 186.890625 283.972656 186.921875 281.757812 C 186.9375 280.785156 186.910156 279.804688 186.703125 278.851562 C 186.496094 277.902344 186.09375 277.046875 185.523438 276.273438 " fill-opacity="1" fill-rule="nonzero"/></g><path fill="#f6e9c1" d="M 232.03125 252.351562 C 232.171875 252.734375 232.3125 253.121094 232.453125 253.507812 C 232.3125 253.121094 232.175781 252.734375 232.03125 252.351562 " fill-opacity="1" fill-rule="nonzero"/><path fill="#f6e9c1" d="M 133.980469 217.171875 C 131.484375 221.011719 129.023438 224.878906 126.59375 228.777344 C 123.765625 233.3125 120.933594 238.007812 119.75 243.320312 C 118.96875 246.835938 118.941406 250.488281 118.914062 254.101562 C 118.882812 259.191406 118.847656 264.285156 118.8125 269.375 C 118.8125 269.808594 118.808594 270.242188 118.804688 270.679688 C 118.78125 272.394531 118.734375 274.121094 118.773438 275.84375 C 118.792969 275.886719 118.8125 275.925781 118.832031 275.96875 C 118.816406 274.988281 118.832031 274.007812 118.84375 273.03125 C 118.890625 274.40625 119.003906 275.777344 119.257812 277.121094 C 119.367188 277.496094 119.449219 277.878906 119.519531 278.261719 C 119.605469 278.574219 119.691406 278.886719 119.769531 279.199219 C 120.183594 280.59375 120.679688 281.964844 120.917969 283.402344 C 121.015625 283.996094 121.074219 284.59375 121.109375 285.195312 C 121.230469 285.773438 121.292969 286.363281 121.285156 286.953125 C 121.28125 287.132812 121.265625 287.300781 121.246094 287.46875 C 121.261719 287.65625 121.277344 287.847656 121.296875 288.035156 C 121.574219 289.082031 121.808594 290.140625 121.949219 291.207031 C 122.75 293.816406 124.171875 296.199219 126.042969 298.066406 C 126.722656 298.503906 127.457031 298.84375 128.253906 299.050781 C 128.386719 299.039062 128.523438 299.019531 128.65625 298.988281 C 129.183594 299.003906 129.714844 298.894531 130.191406 298.648438 C 130.175781 297.351562 130.402344 296.050781 130.839844 294.839844 C 130.859375 294.859375 130.875 294.875 130.890625 294.886719 C 131.089844 295.039062 131.304688 295.164062 131.535156 295.257812 C 131.582031 295.277344 131.632812 295.296875 131.679688 295.3125 C 132.53125 294.5 133.355469 293.667969 134.117188 292.78125 C 134.371094 290.003906 136.386719 287.246094 136.246094 284.335938 C 136.1875 283.125 135.757812 281.980469 135.457031 280.8125 C 134.867188 278.507812 134.78125 276.097656 134.699219 273.710938 C 134.609375 270.992188 134.519531 268.269531 134.425781 265.554688 C 134.085938 255.578125 133.75 245.597656 133.414062 235.625 C 133.367188 234.226562 133.324219 232.8125 133.316406 231.390625 C 133.367188 231.222656 133.425781 231.058594 133.480469 230.890625 C 133.222656 230.199219 133.175781 229.457031 133.472656 228.714844 C 133.480469 228.695312 133.492188 228.671875 133.503906 228.648438 C 133.511719 228.472656 133.535156 228.296875 133.558594 228.121094 C 133.488281 228.199219 133.417969 228.285156 133.351562 228.363281 C 133.53125 223.324219 134.355469 218.386719 137.027344 214.335938 C 135.683594 214.660156 134.773438 215.960938 133.980469 217.171875 " fill-opacity="1" fill-rule="nonzero"/><path fill="#f6e9c1" d="M 70.675781 193.761719 C 71.042969 192.800781 71.445312 191.753906 71.40625 190.703125 C 71.367188 189.714844 70.886719 188.824219 70.394531 187.996094 C 69.160156 185.917969 67.910156 183.851562 66.667969 181.777344 C 66.515625 181.519531 66.359375 181.265625 66.207031 181.007812 C 66.199219 180.996094 66.183594 180.988281 66.171875 181 C 64.746094 182.269531 63.546875 183.765625 62.484375 185.339844 C 61.398438 186.953125 60.445312 188.644531 59.488281 190.335938 C 58.511719 192.070312 57.566406 193.847656 57.152344 195.808594 C 56.8125 197.421875 56.804688 199.097656 57.097656 200.714844 C 57.394531 202.339844 58 203.90625 58.898438 205.289062 C 59.003906 205.453125 59.113281 205.613281 59.222656 205.769531 C 59.226562 205.773438 59.230469 205.777344 59.234375 205.78125 C 59.21875 205.835938 59.1875 205.925781 59.210938 205.953125 C 59.21875 205.960938 59.230469 205.964844 59.238281 205.960938 C 59.28125 205.933594 59.3125 205.847656 59.34375 205.8125 C 59.445312 205.679688 59.585938 205.585938 59.753906 205.578125 C 59.976562 205.570312 60.175781 205.574219 60.394531 205.507812 C 60.613281 205.445312 60.820312 205.347656 61.019531 205.238281 C 61.902344 204.753906 62.734375 204.144531 63.523438 203.519531 C 65.121094 202.246094 66.546875 200.757812 67.757812 199.109375 C 68.960938 197.46875 69.949219 195.667969 70.675781 193.761719 " fill-opacity="1" fill-rule="nonzero"/><path fill="#f6e9c1" d="M 112.25 253.609375 C 112.152344 252.902344 112.042969 252.195312 111.925781 251.492188 C 111.914062 251.433594 111.902344 251.378906 111.894531 251.320312 C 111.882812 251.265625 111.875 251.207031 111.863281 251.152344 C 111.421875 248.609375 110.835938 246.078125 110.179688 243.558594 C 108.867188 238.515625 107.3125 233.523438 106.179688 228.441406 C 105.019531 223.261719 104.371094 218.035156 103.789062 212.820312 C 103.714844 212.171875 103.644531 211.519531 103.570312 210.871094 C 103.570312 210.847656 103.546875 210.839844 103.539062 210.859375 C 101.570312 215.589844 99.738281 220.46875 98.230469 225.542969 C 97.519531 227.929688 96.910156 230.390625 96.503906 232.945312 C 96.089844 235.546875 95.914062 238.242188 95.886719 240.96875 C 95.859375 243.804688 95.957031 246.675781 96.132812 249.542969 C 96.3125 252.402344 96.597656 255.28125 97.097656 258.144531 C 97.992188 263.273438 99.546875 268.335938 101.648438 273.078125 C 103.769531 277.855469 106.445312 282.3125 109.5625 286.183594 C 109.75 286.421875 109.945312 286.65625 110.136719 286.890625 C 110.253906 287.03125 110.304688 287.105469 110.378906 287.148438 C 110.378906 287.148438 110.378906 287.152344 110.382812 287.152344 C 110.382812 287.152344 110.386719 287.152344 110.390625 287.152344 C 110.4375 287.175781 110.488281 287.1875 110.574219 287.199219 C 110.582031 287.199219 110.585938 287.195312 110.585938 287.1875 C 110.589844 287.1875 110.589844 287.1875 110.589844 287.1875 C 110.984375 286.320312 111.140625 285.292969 111.265625 284.269531 C 111.410156 283.050781 111.539062 281.828125 111.664062 280.601562 C 111.910156 278.121094 112.125 275.628906 112.304688 273.128906 C 112.644531 268.316406 112.945312 263.4375 112.710938 258.492188 C 112.632812 256.859375 112.472656 255.230469 112.25 253.609375 " fill-opacity="1" fill-rule="nonzero"/><path fill="#f6e9c1" d="M 158.738281 282.171875 C 158.738281 282.128906 158.730469 282.089844 158.726562 282.046875 C 158.722656 282.003906 158.71875 281.964844 158.714844 281.921875 C 158.519531 280.058594 158.171875 278.199219 157.734375 276.347656 C 156.863281 272.644531 155.714844 268.984375 155.042969 265.25 C 154.367188 261.449219 154.269531 257.609375 154.242188 253.78125 C 154.242188 253.304688 154.238281 252.828125 154.238281 252.351562 C 154.238281 252.335938 154.210938 252.324219 154.203125 252.339844 C 151.394531 255.816406 148.726562 259.398438 146.40625 263.125 C 145.3125 264.878906 144.316406 266.683594 143.546875 268.558594 C 142.761719 270.46875 142.238281 272.449219 141.871094 274.449219 C 141.492188 276.53125 141.257812 278.640625 141.105469 280.746094 C 140.957031 282.847656 140.933594 284.957031 141.148438 287.058594 C 141.535156 290.828125 142.679688 294.542969 144.484375 298.023438 C 146.296875 301.53125 148.785156 304.800781 151.839844 307.648438 C 152.027344 307.820312 152.214844 307.992188 152.40625 308.164062 C 152.523438 308.265625 152.566406 308.320312 152.644531 308.351562 C 152.644531 308.355469 152.648438 308.355469 152.652344 308.355469 C 152.652344 308.355469 152.65625 308.355469 152.660156 308.355469 C 152.707031 308.375 152.769531 308.382812 152.863281 308.390625 C 152.871094 308.390625 152.875 308.386719 152.878906 308.382812 C 153.429688 307.742188 153.734375 306.992188 154 306.238281 C 154.3125 305.34375 154.609375 304.445312 154.898438 303.546875 C 155.480469 301.726562 156.027344 299.898438 156.535156 298.058594 C 157.507812 294.527344 158.445312 290.945312 158.777344 287.3125 C 158.886719 286.113281 158.90625 284.917969 158.851562 283.726562 C 158.828125 283.207031 158.792969 282.691406 158.738281 282.171875 " fill-opacity="1" fill-rule="nonzero"/><path fill="#f6e9c1" d="M 90.441406 237.101562 C 90.441406 236.972656 90.441406 236.84375 90.4375 236.71875 C 90.433594 236.59375 90.433594 236.472656 90.429688 236.347656 C 90.429688 236.332031 90.429688 236.3125 90.429688 236.292969 C 90.382812 234.589844 90.257812 232.878906 90.085938 231.167969 C 89.71875 227.527344 89.175781 223.902344 88.933594 220.25 C 88.6875 216.539062 88.800781 212.839844 88.957031 209.164062 C 88.976562 208.703125 88.996094 208.246094 89.015625 207.785156 C 89.015625 207.769531 89 207.761719 88.992188 207.773438 C 87.121094 210.84375 85.324219 214.03125 83.734375 217.386719 C 82.984375 218.96875 82.296875 220.605469 81.738281 222.335938 C 81.171875 224.09375 80.761719 225.945312 80.449219 227.832031 C 80.125 229.796875 79.886719 231.800781 79.699219 233.808594 C 79.511719 235.808594 79.402344 237.835938 79.441406 239.875 C 79.511719 243.53125 80.042969 247.207031 80.996094 250.722656 C 81.949219 254.265625 83.324219 257.644531 85.070312 260.664062 C 85.179688 260.847656 85.285156 261.035156 85.394531 261.214844 C 85.460938 261.328125 85.484375 261.382812 85.53125 261.421875 C 85.53125 261.421875 85.535156 261.421875 85.535156 261.425781 C 85.539062 261.425781 85.539062 261.425781 85.542969 261.425781 C 85.570312 261.445312 85.605469 261.460938 85.664062 261.476562 C 85.667969 261.476562 85.671875 261.472656 85.675781 261.472656 C 85.675781 261.472656 85.675781 261.472656 85.675781 261.46875 C 86.042969 260.910156 86.261719 260.21875 86.457031 259.519531 C 86.6875 258.6875 86.910156 257.855469 87.128906 257.019531 C 87.566406 255.328125 87.984375 253.621094 88.375 251.902344 C 89.128906 248.601562 89.863281 245.25 90.234375 241.792969 C 90.335938 240.8125 90.398438 239.828125 90.425781 238.835938 C 90.429688 238.800781 90.429688 238.769531 90.429688 238.734375 C 90.433594 238.605469 90.433594 238.472656 90.4375 238.339844 C 90.441406 238.203125 90.441406 238.070312 90.445312 237.933594 C 90.445312 237.875 90.445312 237.820312 90.445312 237.761719 C 90.445312 237.597656 90.445312 237.429688 90.445312 237.265625 C 90.445312 237.210938 90.445312 237.15625 90.441406 237.101562 " fill-opacity="1" fill-rule="nonzero"/><path fill="#f6e9c1" d="M 77.902344 220.160156 C 77.929688 220.039062 77.953125 219.917969 77.976562 219.796875 C 78 219.671875 78.023438 219.550781 78.046875 219.425781 C 78.058594 219.375 78.066406 219.320312 78.074219 219.269531 C 78.105469 219.117188 78.132812 218.964844 78.15625 218.8125 C 78.164062 218.761719 78.171875 218.710938 78.183594 218.660156 C 78.199219 218.542969 78.21875 218.425781 78.238281 218.3125 C 78.253906 218.199219 78.273438 218.085938 78.289062 217.972656 C 78.292969 217.953125 78.292969 217.9375 78.296875 217.921875 C 78.527344 216.355469 78.667969 214.777344 78.757812 213.191406 C 78.953125 209.824219 78.964844 206.449219 79.296875 203.085938 C 79.636719 199.660156 80.355469 196.28125 81.113281 192.925781 C 81.207031 192.507812 81.304688 192.089844 81.398438 191.671875 C 81.40625 191.660156 81.390625 191.648438 81.378906 191.660156 C 78.882812 194.300781 76.449219 197.054688 74.207031 199.988281 C 73.152344 201.367188 72.152344 202.804688 71.277344 204.339844 C 70.386719 205.898438 69.648438 207.558594 69.007812 209.257812 C 68.34375 211.027344 67.765625 212.84375 67.242188 214.664062 C 66.71875 216.480469 66.273438 218.328125 65.984375 220.199219 C 65.46875 223.554688 65.441406 226.972656 65.886719 230.28125 C 66.332031 233.613281 67.257812 236.835938 68.632812 239.761719 C 68.71875 239.941406 68.800781 240.117188 68.886719 240.296875 C 68.941406 240.40625 68.960938 240.457031 69.003906 240.496094 C 69.003906 240.496094 69.003906 240.5 69.007812 240.5 C 69.007812 240.5 69.007812 240.5 69.011719 240.503906 C 69.039062 240.523438 69.074219 240.539062 69.136719 240.558594 C 69.140625 240.5625 69.144531 240.558594 69.148438 240.554688 C 69.628906 240.074219 69.976562 239.460938 70.300781 238.839844 C 70.679688 238.101562 71.050781 237.355469 71.417969 236.605469 C 72.164062 235.097656 72.882812 233.574219 73.578125 232.035156 C 74.917969 229.082031 76.246094 226.078125 77.199219 222.945312 C 77.46875 222.054688 77.695312 221.152344 77.882812 220.25 C 77.890625 220.222656 77.898438 220.191406 77.902344 220.160156 " fill-opacity="1" fill-rule="nonzero"/><path fill="#f6e9c1" d="M 257.621094 263.132812 C 257.601562 260.417969 257.59375 257.679688 257.121094 254.996094 C 256.207031 249.816406 253.300781 245.355469 250.417969 241.0625 C 248.828125 238.691406 247.222656 236.332031 245.597656 233.980469 C 244.835938 232.878906 244.105469 231.75 243.285156 230.691406 C 242.691406 229.917969 241.972656 229.210938 240.996094 228.972656 C 240.976562 228.964844 240.957031 228.988281 240.96875 229.007812 C 241.261719 229.421875 241.535156 229.851562 241.789062 230.292969 C 243.855469 233.945312 244.324219 238.238281 244.371094 242.363281 C 244.394531 244.566406 244.296875 246.765625 244.214844 248.96875 C 244.125 251.484375 244.03125 253.996094 243.941406 256.511719 C 243.757812 261.539062 243.574219 266.570312 243.390625 271.597656 C 243.300781 274.113281 243.210938 276.625 243.117188 279.136719 C 243.027344 281.628906 242.914062 284.078125 242.175781 286.472656 C 241.867188 287.480469 241.59375 288.484375 241.710938 289.546875 C 241.808594 290.4375 242.105469 291.292969 242.429688 292.121094 C 243.101562 293.839844 244.023438 295.671875 243.492188 297.550781 C 243.492188 297.5625 243.496094 297.578125 243.511719 297.582031 C 244.007812 297.660156 244.507812 297.609375 244.972656 297.417969 C 245.199219 297.324219 245.417969 297.199219 245.613281 297.046875 C 245.660156 297.011719 245.722656 296.9375 245.792969 296.859375 C 245.839844 296.816406 245.882812 296.769531 245.925781 296.722656 C 246.007812 296.648438 246.089844 296.597656 246.148438 296.625 C 246.167969 296.632812 246.1875 296.65625 246.210938 296.691406 C 246.234375 296.734375 246.257812 296.777344 246.28125 296.824219 C 246.335938 296.941406 246.386719 297.082031 246.410156 297.140625 C 246.5 297.332031 246.582031 297.523438 246.660156 297.722656 C 246.78125 298.042969 246.886719 298.371094 246.96875 298.703125 C 247.15625 299.429688 247.238281 300.175781 247.234375 300.921875 C 247.234375 300.929688 247.238281 300.941406 247.246094 300.941406 C 248.304688 301.417969 249.542969 301.292969 250.480469 300.621094 L 249.695312 301.5 C 249.667969 301.523438 249.640625 301.542969 249.613281 301.5625 C 249.585938 301.582031 249.613281 301.621094 249.636719 301.605469 C 250.0625 301.304688 250.476562 300.980469 250.867188 300.632812 C 252.484375 299.195312 253.753906 297.371094 254.554688 295.363281 C 254.96875 294.324219 255.257812 293.238281 255.40625 292.132812 C 255.585938 290.78125 255.539062 289.40625 255.761719 288.058594 C 255.980469 286.726562 256.488281 285.464844 256.886719 284.179688 C 257.277344 282.921875 257.507812 281.628906 257.617188 280.316406 C 257.847656 277.5 257.707031 274.640625 257.683594 271.820312 C 257.664062 268.925781 257.644531 266.03125 257.621094 263.132812 " fill-opacity="1" fill-rule="nonzero"/><path fill="#f6e9c1" d="M 317.917969 194.648438 C 317.859375 192.710938 317.804688 190.765625 317.59375 188.832031 C 317.390625 186.941406 317.027344 185.058594 316.359375 183.273438 C 316.351562 183.257812 316.335938 183.257812 316.320312 183.265625 C 316.066406 183.421875 315.8125 183.578125 315.554688 183.730469 C 313.492188 184.984375 311.421875 186.230469 309.363281 187.492188 C 308.539062 188 307.699219 188.5625 307.207031 189.417969 C 306.679688 190.328125 306.546875 191.441406 306.421875 192.464844 C 306.179688 194.484375 306.210938 196.542969 306.511719 198.554688 C 306.8125 200.578125 307.378906 202.558594 308.203125 204.429688 C 308.605469 205.351562 309.058594 206.277344 309.613281 207.121094 C 309.738281 207.308594 309.875 207.492188 310.042969 207.652344 C 310.203125 207.808594 310.382812 207.898438 310.578125 208.011719 C 310.71875 208.09375 310.800781 208.246094 310.832031 208.40625 C 310.839844 208.453125 310.824219 208.546875 310.855469 208.585938 C 310.859375 208.59375 310.871094 208.597656 310.878906 208.59375 C 310.914062 208.578125 310.933594 208.484375 310.941406 208.429688 C 310.945312 208.429688 310.949219 208.429688 310.953125 208.425781 C 311.128906 208.339844 311.296875 208.25 311.46875 208.152344 C 312.90625 207.347656 314.175781 206.242188 315.191406 204.945312 C 316.210938 203.652344 316.980469 202.164062 317.429688 200.578125 C 317.980469 198.652344 317.972656 196.636719 317.917969 194.648438 " fill-opacity="1" fill-rule="nonzero"/><path fill="#f6e9c1" d="M 280 235.101562 C 279.59375 232.546875 278.980469 230.089844 278.273438 227.699219 C 276.765625 222.625 274.933594 217.746094 272.964844 213.015625 C 272.957031 212.996094 272.933594 213.003906 272.933594 213.03125 C 272.859375 213.679688 272.789062 214.328125 272.714844 214.980469 C 272.132812 220.191406 271.484375 225.421875 270.324219 230.597656 C 269.191406 235.683594 267.636719 240.671875 266.324219 245.714844 C 265.667969 248.234375 265.085938 250.765625 264.640625 253.308594 C 264.628906 253.363281 264.621094 253.421875 264.609375 253.480469 C 264.601562 253.535156 264.589844 253.59375 264.578125 253.648438 C 264.460938 254.351562 264.351562 255.058594 264.253906 255.765625 C 264.03125 257.386719 263.871094 259.015625 263.792969 260.644531 C 263.554688 265.59375 263.863281 270.472656 264.199219 275.285156 C 264.378906 277.789062 264.589844 280.277344 264.839844 282.757812 C 264.964844 283.984375 265.09375 285.207031 265.242188 286.425781 C 265.363281 287.453125 265.523438 288.476562 265.914062 289.34375 C 265.914062 289.34375 265.917969 289.34375 265.917969 289.347656 C 265.917969 289.351562 265.921875 289.355469 265.929688 289.355469 C 266.015625 289.34375 266.070312 289.332031 266.113281 289.3125 C 266.117188 289.3125 266.121094 289.3125 266.121094 289.3125 C 266.125 289.308594 266.125 289.308594 266.125 289.304688 C 266.199219 289.261719 266.25 289.1875 266.367188 289.046875 C 266.5625 288.816406 266.753906 288.578125 266.941406 288.34375 C 270.058594 284.46875 272.734375 280.011719 274.855469 275.234375 C 276.957031 270.492188 278.511719 265.429688 279.40625 260.300781 C 279.90625 257.4375 280.195312 254.5625 280.371094 251.703125 C 280.546875 248.832031 280.644531 245.964844 280.613281 243.125 C 280.585938 240.398438 280.414062 237.703125 280 235.101562 " fill-opacity="1" fill-rule="nonzero"/><path fill="#f6e9c1" d="M 234.714844 259.601562 C 234.882812 259.9375 235.042969 260.273438 235.207031 260.609375 C 235.042969 260.273438 234.882812 259.9375 234.714844 259.601562 Z M 236.109375 262.539062 C 234.25 258.265625 231.957031 254.09375 229.484375 250.019531 C 229.476562 250.003906 229.445312 250.007812 229.441406 250.027344 C 229.332031 250.535156 229.226562 251.042969 229.113281 251.546875 C 228.238281 255.617188 227.273438 259.6875 225.640625 263.636719 C 224.042969 267.519531 221.898438 271.257812 220.066406 275.082031 C 219.152344 276.992188 218.332031 278.917969 217.695312 280.878906 C 217.679688 280.921875 217.667969 280.964844 217.652344 281.011719 C 217.636719 281.054688 217.625 281.097656 217.609375 281.140625 C 217.4375 281.683594 217.277344 282.230469 217.136719 282.777344 C 216.808594 284.039062 216.5625 285.3125 216.425781 286.601562 C 216.003906 290.507812 216.296875 294.445312 216.636719 298.335938 C 216.8125 300.359375 217.039062 302.378906 217.3125 304.390625 C 217.445312 305.390625 217.589844 306.382812 217.75 307.378906 C 217.890625 308.214844 218.074219 309.054688 218.570312 309.808594 C 218.574219 309.8125 218.582031 309.820312 218.589844 309.820312 C 218.699219 309.824219 218.773438 309.824219 218.832031 309.8125 C 218.835938 309.8125 218.835938 309.8125 218.84375 309.8125 C 218.84375 309.8125 218.847656 309.808594 218.847656 309.808594 C 218.945312 309.789062 219.007812 309.734375 219.167969 309.640625 C 219.425781 309.484375 219.683594 309.328125 219.941406 309.167969 C 224.105469 306.554688 227.707031 303.410156 230.585938 299.925781 C 233.445312 296.464844 235.59375 292.664062 236.878906 288.710938 C 237.59375 286.503906 238.03125 284.253906 238.328125 282 C 238.621094 279.742188 238.816406 277.464844 238.839844 275.199219 C 238.859375 273.023438 238.691406 270.847656 238.207031 268.707031 C 237.734375 266.609375 236.984375 264.554688 236.109375 262.539062 " fill-opacity="1" fill-rule="nonzero"/><path fill="#f6e9c1" d="M 296.71875 239.769531 C 296.328125 237.789062 295.890625 235.820312 295.363281 233.898438 C 294.863281 232.054688 294.265625 230.257812 293.527344 228.5625 C 292.796875 226.898438 291.945312 225.335938 291.042969 223.839844 C 289.121094 220.660156 287.011719 217.671875 284.835938 214.808594 C 284.828125 214.792969 284.816406 214.808594 284.816406 214.820312 C 284.882812 215.277344 284.949219 215.730469 285.015625 216.183594 C 285.542969 219.828125 286.027344 223.496094 286.15625 227.214844 C 286.289062 230.871094 286.117188 234.53125 286.117188 238.191406 C 286.117188 239.910156 286.164062 241.625 286.292969 243.324219 C 286.296875 243.347656 286.296875 243.363281 286.296875 243.382812 C 286.308594 243.503906 286.320312 243.625 286.328125 243.75 C 286.339844 243.875 286.351562 244 286.359375 244.128906 C 286.367188 244.183594 286.371094 244.238281 286.375 244.292969 C 286.390625 244.460938 286.410156 244.625 286.425781 244.789062 C 286.433594 244.84375 286.4375 244.902344 286.445312 244.960938 C 286.460938 245.09375 286.476562 245.230469 286.492188 245.363281 C 286.507812 245.496094 286.523438 245.625 286.539062 245.753906 C 286.542969 245.789062 286.546875 245.824219 286.554688 245.855469 C 286.679688 246.839844 286.839844 247.8125 287.042969 248.78125 C 287.761719 252.183594 288.832031 255.441406 289.914062 258.648438 C 290.476562 260.316406 291.066406 261.972656 291.675781 263.609375 C 291.976562 264.417969 292.277344 265.230469 292.59375 266.03125 C 292.859375 266.707031 293.148438 267.371094 293.570312 267.894531 C 293.574219 267.898438 293.574219 267.898438 293.578125 267.898438 C 293.636719 267.875 293.671875 267.859375 293.699219 267.835938 C 293.699219 267.832031 293.699219 267.832031 293.703125 267.832031 C 293.703125 267.832031 293.703125 267.828125 293.703125 267.828125 C 293.746094 267.785156 293.765625 267.730469 293.824219 267.609375 C 293.914062 267.417969 294 267.222656 294.089844 267.03125 C 295.519531 263.847656 296.546875 260.347656 297.140625 256.726562 C 297.726562 253.136719 297.890625 249.421875 297.585938 245.78125 C 297.421875 243.746094 297.101562 241.742188 296.71875 239.769531 " fill-opacity="1" fill-rule="nonzero"/><path fill="#f6e9c1" d="M 310.363281 222.402344 C 309.765625 220.652344 309.003906 218.953125 308.171875 217.292969 C 307.335938 215.625 306.441406 213.980469 305.46875 212.386719 C 304.53125 210.855469 303.5 209.378906 302.328125 208.019531 C 301.175781 206.679688 299.910156 205.453125 298.589844 204.289062 C 295.796875 201.824219 292.832031 199.550781 289.820312 197.394531 C 289.808594 197.382812 289.796875 197.394531 289.800781 197.410156 C 289.96875 197.796875 290.132812 198.179688 290.300781 198.566406 C 291.628906 201.664062 292.917969 204.785156 293.820312 208.011719 C 294.707031 211.183594 295.257812 214.40625 296.003906 217.597656 C 296.355469 219.097656 296.753906 220.589844 297.246094 222.050781 C 297.25 222.066406 297.253906 222.082031 297.257812 222.101562 C 297.296875 222.203125 297.332031 222.308594 297.367188 222.414062 C 297.40625 222.523438 297.445312 222.632812 297.484375 222.742188 C 297.5 222.789062 297.515625 222.835938 297.535156 222.882812 C 297.585938 223.023438 297.636719 223.167969 297.691406 223.308594 C 297.707031 223.355469 297.726562 223.40625 297.742188 223.453125 C 297.789062 223.570312 297.832031 223.683594 297.878906 223.796875 C 297.921875 223.910156 297.96875 224.019531 298.015625 224.132812 C 298.023438 224.160156 298.035156 224.191406 298.046875 224.21875 C 298.390625 225.054688 298.769531 225.878906 299.191406 226.691406 C 300.683594 229.546875 302.542969 232.222656 304.40625 234.851562 C 305.375 236.214844 306.363281 237.566406 307.378906 238.902344 C 307.878906 239.558594 308.382812 240.21875 308.898438 240.867188 C 309.332031 241.414062 309.789062 241.949219 310.367188 242.335938 C 310.371094 242.339844 310.375 242.339844 310.378906 242.339844 C 310.4375 242.3125 310.472656 242.289062 310.5 242.265625 C 310.5 242.265625 310.503906 242.265625 310.503906 242.261719 C 310.503906 242.261719 310.503906 242.261719 310.503906 242.257812 C 310.546875 242.214844 310.554688 242.164062 310.59375 242.050781 C 310.65625 241.867188 310.714844 241.6875 310.773438 241.503906 C 311.722656 238.496094 312.164062 235.277344 312.089844 232.027344 C 312.015625 228.800781 311.441406 225.53125 310.363281 222.402344 " fill-opacity="1" fill-rule="nonzero"/><path fill="#f6e9c1" d="M 211.539062 272.121094 C 211.082031 271.246094 210.546875 270.421875 209.988281 269.613281 C 209.472656 268.863281 208.949219 268.105469 208.378906 267.390625 C 207.8125 266.6875 207.164062 266.070312 206.335938 265.714844 C 205.523438 265.359375 204.625 265.25 203.746094 265.285156 C 200.25 265.421875 197.230469 267.597656 194.734375 269.953125 C 194.070312 270.578125 193.429688 271.226562 192.796875 271.886719 C 192.167969 272.546875 191.527344 273.203125 190.984375 273.941406 C 190.414062 274.714844 190.011719 275.570312 189.804688 276.519531 C 189.597656 277.46875 189.566406 278.453125 189.582031 279.425781 C 189.617188 281.640625 189.730469 283.851562 189.808594 286.066406 C 189.890625 288.339844 189.972656 290.613281 190.054688 292.886719 C 190.09375 293.992188 190.132812 295.09375 190.175781 296.195312 C 190.25 298.3125 190.332031 300.457031 190.855469 302.515625 C 191.371094 304.535156 192.300781 306.410156 193.195312 308.269531 C 194.167969 310.296875 195.144531 312.324219 196.121094 314.351562 C 196.359375 314.851562 196.601562 315.351562 196.839844 315.847656 C 196.960938 316.097656 197.082031 316.347656 197.203125 316.597656 C 197.3125 316.828125 197.40625 317.082031 197.566406 317.273438 C 197.734375 317.46875 197.910156 317.652344 198.066406 317.859375 C 198.167969 318 198.257812 317.945312 198.421875 317.902344 C 198.804688 317.800781 199.148438 317.578125 199.457031 317.328125 C 200.171875 316.742188 200.8125 316.027344 201.449219 315.351562 C 202.089844 314.664062 202.710938 313.957031 203.308594 313.230469 C 204.476562 311.796875 205.554688 310.277344 206.496094 308.671875 C 207.425781 307.085938 208.222656 305.414062 208.84375 303.671875 C 209.546875 301.695312 210.003906 299.632812 210.347656 297.554688 C 210.699219 295.417969 210.953125 293.261719 211.226562 291.109375 C 211.515625 288.851562 211.804688 286.597656 212.097656 284.335938 C 212.238281 283.226562 212.382812 282.113281 212.523438 281.003906 C 212.664062 279.90625 212.820312 278.808594 212.855469 277.699219 C 212.886719 276.675781 212.808594 275.65625 212.550781 274.667969 C 212.316406 273.777344 211.960938 272.929688 211.539062 272.121094 " fill-opacity="1" fill-rule="nonzero"/><g fill="#000000" fill-opacity="0.502"><g transform="translate(12.391485, 223.106218)"><g><path d="M 1.882812 -0.742188 L 17.75 -6.992188 C 22.195312 -8.742188 24.160156 -13.261719 22.40625 -17.707031 L 16.589844 -32.476562 C 14.835938 -36.925781 10.320312 -38.886719 5.875 -37.136719 L -9.992188 -30.886719 C -10.519531 -30.679688 -10.769531 -30.101562 -10.5625 -29.574219 L 0.570312 -1.3125 C 0.777344 -0.785156 1.355469 -0.535156 1.882812 -0.742188 Z M 9.773438 -13.863281 C 9.246094 -13.652344 8.667969 -13.90625 8.460938 -14.433594 L 4.15625 -25.359375 C 3.949219 -25.886719 4.199219 -26.464844 4.726562 -26.675781 C 5.253906 -26.882812 5.832031 -26.628906 6.039062 -26.101562 L 10.34375 -15.175781 C 10.554688 -14.648438 10.300781 -14.070312 9.773438 -13.863281 Z M 9.773438 -13.863281 "/></g></g></g><g fill="#000000" fill-opacity="0.502"><g transform="translate(37.754489, 212.965402)"><g><path d="M 1.96875 -0.625 L 30.921875 -9.808594 C 31.460938 -9.980469 31.753906 -10.539062 31.582031 -11.082031 L 29.253906 -18.414062 C 29.082031 -18.957031 28.484375 -19.234375 27.945312 -19.0625 L 10.570312 -13.550781 C 10.03125 -13.378906 9.472656 -13.667969 9.300781 -14.210938 C 9.128906 -14.75 9.417969 -15.308594 9.960938 -15.480469 L 25.824219 -20.515625 C 26.367188 -20.6875 26.65625 -21.246094 26.484375 -21.785156 L 24.402344 -28.347656 C 24.230469 -28.890625 23.632812 -29.167969 23.09375 -28.996094 L 7.265625 -23.972656 C 6.726562 -23.804688 6.164062 -24.09375 5.996094 -24.632812 C 5.824219 -25.171875 6.113281 -25.734375 6.652344 -25.90625 L 24.0625 -31.429688 C 24.605469 -31.597656 24.894531 -32.160156 24.722656 -32.699219 L 22.394531 -40.035156 C 22.222656 -40.574219 21.664062 -40.863281 21.125 -40.691406 L -7.867188 -31.496094 C -8.40625 -31.324219 -8.699219 -30.765625 -8.527344 -30.222656 L 0.660156 -1.269531 C 0.832031 -0.730469 1.429688 -0.453125 1.96875 -0.625 Z M 1.96875 -0.625 "/></g></g></g><g fill="#000000" fill-opacity="0.502"><g transform="translate(69.633664, 202.92341)"><g><path d="M 5.824219 -1.417969 L 21.71875 -5.296875 C 22.074219 -5.382812 22.410156 -5.714844 22.421875 -6.175781 L 23.140625 -19.816406 C 23.152344 -20.277344 23.105469 -20.640625 23 -21.074219 L 19.125 -36.96875 C 18.992188 -37.519531 18.414062 -37.839844 17.863281 -37.703125 L 8.0625 -35.316406 C 7.511719 -35.179688 7.1875 -34.640625 7.320312 -34.089844 L 11.925781 -15.203125 C 12.058594 -14.652344 11.730469 -14.117188 11.179688 -13.980469 C 10.628906 -13.847656 10.09375 -14.175781 9.957031 -14.726562 L 5.351562 -33.613281 C 5.21875 -34.164062 4.640625 -34.480469 4.089844 -34.347656 L -5.707031 -31.957031 C -6.257812 -31.824219 -6.585938 -31.285156 -6.449219 -30.734375 L -2.574219 -14.835938 C -2.449219 -14.328125 -2.34375 -14.058594 -2.121094 -13.65625 L 4.792969 -1.878906 C 5.019531 -1.472656 5.46875 -1.332031 5.824219 -1.417969 Z M 5.824219 -1.417969 "/></g></g></g><g fill="#000000" fill-opacity="0.502"><g transform="translate(96.520139, 196.518834)"><g><path d="M 2.027344 -0.394531 L 11.925781 -2.332031 C 12.480469 -2.441406 12.832031 -2.960938 12.722656 -3.519531 L 6.894531 -33.328125 C 6.785156 -33.886719 6.222656 -34.230469 5.667969 -34.121094 L -4.230469 -32.1875 C -4.785156 -32.078125 -5.136719 -31.554688 -5.027344 -31 L 0.800781 -1.1875 C 0.910156 -0.632812 1.46875 -0.289062 2.027344 -0.394531 Z M 2.027344 -0.394531 "/></g></g></g><g fill="#000000" fill-opacity="0.502"><g transform="translate(109.744225, 193.78272)"><g><path d="M 2.003906 -0.300781 L 24.03125 -3.613281 C 24.589844 -3.695312 24.964844 -4.203125 24.878906 -4.761719 L 23.554688 -13.574219 C 23.472656 -14.136719 22.964844 -14.507812 22.40625 -14.425781 L 12.433594 -12.925781 C 11.871094 -12.84375 11.324219 -13.210938 11.242188 -13.769531 L 8.355469 -32.957031 C 8.273438 -33.515625 7.761719 -33.929688 7.199219 -33.847656 L -2.773438 -32.347656 C -3.332031 -32.261719 -3.75 -31.75 -3.664062 -31.1875 L 0.851562 -1.152344 C 0.933594 -0.589844 1.441406 -0.214844 2.003906 -0.300781 Z M 2.003906 -0.300781 "/></g></g></g><g fill="#000000" fill-opacity="0.502"><g transform="translate(134.762232, 189.853888)"><g><path d="M 2.019531 -0.167969 L 25.0625 -2.09375 C 29.824219 -2.492188 33.007812 -6.253906 32.609375 -11.015625 L 32.230469 -15.535156 C 31.832031 -20.296875 28.070312 -23.480469 23.308594 -23.082031 L 12.371094 -22.167969 C 11.808594 -22.121094 11.324219 -22.527344 11.277344 -23.09375 C 11.230469 -23.65625 11.636719 -24.136719 12.203125 -24.183594 L 30.363281 -25.703125 C 30.929688 -25.75 31.335938 -26.230469 31.289062 -26.796875 L 30.683594 -34.0625 C 30.636719 -34.625 30.15625 -35.03125 29.589844 -34.984375 L 6.542969 -33.058594 C 1.78125 -32.660156 -1.398438 -28.902344 -1 -24.136719 L -0.625 -19.617188 C -0.226562 -14.855469 3.535156 -11.675781 8.296875 -12.074219 L 19.234375 -12.988281 C 19.800781 -13.035156 20.28125 -12.628906 20.328125 -12.0625 C 20.375 -11.496094 19.96875 -11.015625 19.402344 -10.96875 L 1.242188 -9.453125 C 0.675781 -9.402344 0.269531 -8.921875 0.316406 -8.359375 L 0.925781 -1.09375 C 0.972656 -0.527344 1.453125 -0.121094 2.019531 -0.167969 Z M 2.019531 -0.167969 "/></g></g></g><g fill="#000000" fill-opacity="0.502"><g transform="translate(168.138588, 187.222793)"><g><path d="M 1.757812 -12.191406 L 19.980469 -12.589844 C 20.546875 -12.605469 20.980469 -13.097656 20.96875 -13.667969 L 20.835938 -19.699219 C 20.824219 -20.265625 20.367188 -20.703125 19.800781 -20.6875 L 1.582031 -20.289062 C 1.011719 -20.277344 0.578125 -19.78125 0.589844 -19.214844 L 0.722656 -13.179688 C 0.734375 -12.613281 1.191406 -12.179688 1.757812 -12.191406 Z M 1.757812 -12.191406 "/></g></g></g><g fill="#000000" fill-opacity="0.502"><g transform="translate(189.469761, 186.539215)"><g><path d="M 2.0625 0.0820312 L 12.140625 0.480469 C 12.707031 0.503906 13.167969 0.0742188 13.191406 -0.492188 L 13.558594 -9.800781 C 13.582031 -10.367188 14.085938 -10.792969 14.652344 -10.769531 L 25.578125 -10.339844 C 30.355469 -10.148438 33.972656 -13.492188 34.160156 -18.265625 L 34.339844 -22.800781 C 34.527344 -27.574219 31.183594 -31.191406 26.410156 -31.382812 L 3.300781 -32.292969 C 2.734375 -32.316406 2.273438 -31.890625 2.25 -31.324219 L 1.050781 -0.972656 C 1.03125 -0.40625 1.496094 0.0585938 2.0625 0.0820312 Z M 14.996094 -20.484375 C 14.429688 -20.507812 14 -20.96875 14.023438 -21.535156 C 14.046875 -22.101562 14.507812 -22.53125 15.074219 -22.507812 L 21.144531 -22.265625 C 21.710938 -22.246094 22.140625 -21.78125 22.117188 -21.214844 C 22.09375 -20.648438 21.632812 -20.222656 21.066406 -20.242188 Z M 14.996094 -20.484375 "/></g></g></g><g fill="#000000" fill-opacity="0.502"><g transform="translate(222.824509, 187.924655)"><g><path d="M 2.054688 0.222656 L 12.078125 1.304688 C 12.644531 1.363281 13.132812 0.96875 13.195312 0.40625 L 13.804688 -5.230469 C 13.863281 -5.796875 14.355469 -6.191406 14.917969 -6.128906 C 15.484375 -6.070312 15.875 -5.539062 15.8125 -4.972656 L 15.207031 0.621094 C 15.148438 1.1875 15.582031 1.683594 16.148438 1.742188 L 26.171875 2.824219 C 26.738281 2.886719 27.226562 2.492188 27.289062 1.925781 L 29.769531 -21.066406 C 30.28125 -25.816406 27.191406 -29.652344 22.441406 -30.167969 L 12.699219 -31.21875 C 7.945312 -31.730469 4.109375 -28.640625 3.597656 -23.890625 L 1.117188 -0.898438 C 1.054688 -0.335938 1.488281 0.160156 2.054688 0.222656 Z M 15.960938 -15.792969 C 15.398438 -15.855469 15.003906 -16.34375 15.0625 -16.910156 L 15.410156 -20.128906 C 15.472656 -20.695312 15.964844 -21.089844 16.527344 -21.027344 C 17.089844 -20.96875 17.484375 -20.476562 17.425781 -19.914062 L 17.078125 -16.691406 C 17.015625 -16.128906 16.527344 -15.734375 15.960938 -15.792969 Z M 15.960938 -15.792969 "/></g></g></g><g fill="#000000" fill-opacity="0.502"><g transform="translate(250.108088, 190.872147)"><g><path d="M 1.996094 0.335938 L 23.964844 4.03125 C 24.523438 4.128906 25.035156 3.761719 25.128906 3.203125 L 26.609375 -5.582031 C 26.703125 -6.144531 26.335938 -6.65625 25.777344 -6.75 L 15.832031 -8.425781 C 15.273438 -8.519531 14.867188 -9.039062 14.960938 -9.597656 L 18.183594 -28.726562 C 18.277344 -29.285156 17.917969 -29.839844 17.359375 -29.933594 L 7.414062 -31.609375 C 6.855469 -31.703125 6.300781 -31.34375 6.207031 -30.785156 L 1.167969 -0.832031 C 1.074219 -0.269531 1.4375 0.242188 1.996094 0.335938 Z M 1.996094 0.335938 "/></g></g></g><g fill="#000000" fill-opacity="0.502"><g transform="translate(275.184119, 195.034401)"><g><path d="M 2.011719 0.460938 L 11.839844 2.722656 C 12.394531 2.847656 12.925781 2.515625 13.054688 1.960938 L 14.324219 -3.5625 C 14.453125 -4.117188 14.984375 -4.449219 15.539062 -4.324219 C 16.089844 -4.195312 16.417969 -3.621094 16.289062 -3.070312 L 15.027344 2.417969 C 14.902344 2.96875 15.273438 3.511719 15.828125 3.640625 L 25.65625 5.898438 C 26.207031 6.027344 26.742188 5.691406 26.871094 5.136719 L 32.050781 -17.398438 C 33.121094 -22.054688 30.507812 -26.230469 25.851562 -27.300781 L 16.296875 -29.5 C 11.640625 -30.570312 7.464844 -27.953125 6.394531 -23.296875 L 1.214844 -0.761719 C 1.085938 -0.207031 1.460938 0.335938 2.011719 0.460938 Z M 17.714844 -13.796875 C 17.164062 -13.921875 16.828125 -14.457031 16.957031 -15.011719 L 17.683594 -18.167969 C 17.808594 -18.71875 18.34375 -19.054688 18.894531 -18.925781 C 19.449219 -18.800781 19.785156 -18.265625 19.65625 -17.714844 L 18.929688 -14.554688 C 18.804688 -14.003906 18.269531 -13.667969 17.714844 -13.796875 Z M 17.714844 -13.796875 "/></g></g></g><g fill="#000000" fill-opacity="0.502"><g transform="translate(301.836152, 201.020052)"><g><path d="M 8.875 2.6875 L 31.011719 9.386719 C 31.550781 9.554688 32.121094 9.21875 32.285156 8.675781 L 34.855469 0.183594 C 35.019531 -0.355469 34.722656 -0.914062 34.179688 -1.078125 L 16.734375 -6.359375 C 16.191406 -6.523438 15.894531 -7.078125 16.058594 -7.621094 L 18.523438 -15.761719 C 18.6875 -16.304688 19.242188 -16.601562 19.785156 -16.4375 L 37.230469 -11.15625 C 37.773438 -10.992188 38.339844 -11.328125 38.503906 -11.871094 L 41.074219 -20.359375 C 41.238281 -20.902344 40.941406 -21.457031 40.398438 -21.621094 L 18.265625 -28.324219 C 13.691406 -29.707031 9.347656 -27.382812 7.964844 -22.808594 L 3.363281 -7.613281 C 1.976562 -3.039062 4.300781 1.300781 8.875 2.6875 Z M 8.875 2.6875 "/></g></g></g><g fill="#000000" fill-opacity="0.502"><g transform="translate(333.709455, 210.623616)"><g><path d="M 1.925781 0.746094 L 30.261719 11.691406 C 30.789062 11.894531 31.367188 11.640625 31.570312 11.109375 L 34.34375 3.933594 C 34.546875 3.402344 34.253906 2.8125 33.726562 2.609375 L 16.726562 -3.960938 C 16.195312 -4.164062 15.941406 -4.738281 16.144531 -5.269531 C 16.351562 -5.796875 16.925781 -6.050781 17.453125 -5.847656 L 32.980469 0.148438 C 33.511719 0.355469 34.085938 0.0976562 34.292969 -0.429688 L 36.773438 -6.851562 C 36.976562 -7.382812 36.683594 -7.972656 36.15625 -8.175781 L 20.664062 -14.160156 C 20.136719 -14.363281 19.882812 -14.941406 20.085938 -15.46875 C 20.289062 -15.996094 20.867188 -16.253906 21.394531 -16.046875 L 38.433594 -9.46875 C 38.960938 -9.261719 39.539062 -9.519531 39.742188 -10.046875 L 42.515625 -17.226562 C 42.71875 -17.753906 42.464844 -18.328125 41.9375 -18.535156 L 13.5625 -29.492188 C 13.035156 -29.699219 12.457031 -29.441406 12.253906 -28.914062 L 1.308594 -0.578125 C 1.105469 -0.0507812 1.398438 0.539062 1.925781 0.746094 Z M 1.925781 0.746094 "/></g></g></g><g fill="#000000" fill-opacity="0.302"><g transform="translate(14.181352, 224.89608)"><g><path d="M 1.882812 -0.742188 L 17.75 -6.992188 C 22.195312 -8.742188 24.160156 -13.261719 22.40625 -17.707031 L 16.589844 -32.476562 C 14.835938 -36.925781 10.320312 -38.886719 5.875 -37.136719 L -9.992188 -30.886719 C -10.519531 -30.679688 -10.769531 -30.101562 -10.5625 -29.574219 L 0.570312 -1.3125 C 0.777344 -0.785156 1.355469 -0.535156 1.882812 -0.742188 Z M 9.773438 -13.863281 C 9.246094 -13.652344 8.667969 -13.90625 8.460938 -14.433594 L 4.15625 -25.359375 C 3.949219 -25.886719 4.199219 -26.464844 4.726562 -26.675781 C 5.253906 -26.882812 5.832031 -26.628906 6.039062 -26.101562 L 10.34375 -15.175781 C 10.554688 -14.648438 10.300781 -14.070312 9.773438 -13.863281 Z M 9.773438 -13.863281 "/></g></g></g><g fill="#000000" fill-opacity="0.302"><g transform="translate(39.544356, 214.755265)"><g><path d="M 1.96875 -0.625 L 30.921875 -9.808594 C 31.460938 -9.980469 31.753906 -10.539062 31.582031 -11.082031 L 29.253906 -18.414062 C 29.082031 -18.957031 28.484375 -19.234375 27.945312 -19.0625 L 10.570312 -13.550781 C 10.03125 -13.378906 9.472656 -13.667969 9.300781 -14.210938 C 9.128906 -14.75 9.417969 -15.308594 9.960938 -15.480469 L 25.824219 -20.515625 C 26.367188 -20.6875 26.65625 -21.246094 26.484375 -21.785156 L 24.402344 -28.347656 C 24.230469 -28.890625 23.632812 -29.167969 23.09375 -28.996094 L 7.265625 -23.972656 C 6.726562 -23.804688 6.164062 -24.09375 5.996094 -24.632812 C 5.824219 -25.171875 6.113281 -25.734375 6.652344 -25.90625 L 24.0625 -31.429688 C 24.605469 -31.597656 24.894531 -32.160156 24.722656 -32.699219 L 22.394531 -40.035156 C 22.222656 -40.574219 21.664062 -40.863281 21.125 -40.691406 L -7.867188 -31.496094 C -8.40625 -31.324219 -8.699219 -30.765625 -8.527344 -30.222656 L 0.660156 -1.269531 C 0.832031 -0.730469 1.429688 -0.453125 1.96875 -0.625 Z M 1.96875 -0.625 "/></g></g></g><g fill="#000000" fill-opacity="0.302"><g transform="translate(71.423531, 204.713272)"><g><path d="M 5.824219 -1.417969 L 21.71875 -5.296875 C 22.074219 -5.382812 22.410156 -5.714844 22.421875 -6.175781 L 23.140625 -19.816406 C 23.152344 -20.277344 23.105469 -20.640625 23 -21.074219 L 19.125 -36.96875 C 18.992188 -37.519531 18.414062 -37.839844 17.863281 -37.703125 L 8.0625 -35.316406 C 7.511719 -35.179688 7.1875 -34.640625 7.320312 -34.089844 L 11.925781 -15.203125 C 12.058594 -14.652344 11.730469 -14.117188 11.179688 -13.980469 C 10.628906 -13.847656 10.09375 -14.175781 9.957031 -14.726562 L 5.351562 -33.613281 C 5.21875 -34.164062 4.640625 -34.480469 4.089844 -34.347656 L -5.707031 -31.957031 C -6.257812 -31.824219 -6.585938 -31.285156 -6.449219 -30.734375 L -2.574219 -14.835938 C -2.449219 -14.328125 -2.34375 -14.058594 -2.121094 -13.65625 L 4.792969 -1.878906 C 5.019531 -1.472656 5.46875 -1.332031 5.824219 -1.417969 Z M 5.824219 -1.417969 "/></g></g></g><g fill="#000000" fill-opacity="0.302"><g transform="translate(98.310011, 198.308699)"><g><path d="M 2.027344 -0.394531 L 11.925781 -2.332031 C 12.480469 -2.441406 12.832031 -2.960938 12.722656 -3.519531 L 6.894531 -33.328125 C 6.785156 -33.886719 6.222656 -34.230469 5.667969 -34.121094 L -4.230469 -32.1875 C -4.785156 -32.078125 -5.136719 -31.554688 -5.027344 -31 L 0.800781 -1.1875 C 0.910156 -0.632812 1.46875 -0.289062 2.027344 -0.394531 Z M 2.027344 -0.394531 "/></g></g></g><g fill="#000000" fill-opacity="0.302"><g transform="translate(111.534095, 195.572568)"><g><path d="M 2.003906 -0.300781 L 24.03125 -3.613281 C 24.589844 -3.695312 24.964844 -4.203125 24.878906 -4.761719 L 23.554688 -13.574219 C 23.472656 -14.136719 22.964844 -14.507812 22.40625 -14.425781 L 12.433594 -12.925781 C 11.871094 -12.84375 11.324219 -13.210938 11.242188 -13.769531 L 8.355469 -32.957031 C 8.273438 -33.515625 7.761719 -33.929688 7.199219 -33.847656 L -2.773438 -32.347656 C -3.332031 -32.261719 -3.75 -31.75 -3.664062 -31.1875 L 0.851562 -1.152344 C 0.933594 -0.589844 1.441406 -0.214844 2.003906 -0.300781 Z M 2.003906 -0.300781 "/></g></g></g><g fill="#000000" fill-opacity="0.302"><g transform="translate(136.552097, 191.643736)"><g><path d="M 2.019531 -0.167969 L 25.0625 -2.09375 C 29.824219 -2.492188 33.007812 -6.253906 32.609375 -11.015625 L 32.230469 -15.535156 C 31.832031 -20.296875 28.070312 -23.480469 23.308594 -23.082031 L 12.371094 -22.167969 C 11.808594 -22.121094 11.324219 -22.527344 11.277344 -23.09375 C 11.230469 -23.65625 11.636719 -24.136719 12.203125 -24.183594 L 30.363281 -25.703125 C 30.929688 -25.75 31.335938 -26.230469 31.289062 -26.796875 L 30.683594 -34.0625 C 30.636719 -34.625 30.15625 -35.03125 29.589844 -34.984375 L 6.542969 -33.058594 C 1.78125 -32.660156 -1.398438 -28.902344 -1 -24.136719 L -0.625 -19.617188 C -0.226562 -14.855469 3.535156 -11.675781 8.296875 -12.074219 L 19.234375 -12.988281 C 19.800781 -13.035156 20.28125 -12.628906 20.328125 -12.0625 C 20.375 -11.496094 19.96875 -11.015625 19.402344 -10.96875 L 1.242188 -9.453125 C 0.675781 -9.402344 0.269531 -8.921875 0.316406 -8.359375 L 0.925781 -1.09375 C 0.972656 -0.527344 1.453125 -0.121094 2.019531 -0.167969 Z M 2.019531 -0.167969 "/></g></g></g><g fill="#000000" fill-opacity="0.302"><g transform="translate(169.928467, 189.012656)"><g><path d="M 1.757812 -12.191406 L 19.980469 -12.589844 C 20.546875 -12.605469 20.980469 -13.097656 20.96875 -13.667969 L 20.835938 -19.699219 C 20.824219 -20.265625 20.367188 -20.703125 19.800781 -20.6875 L 1.582031 -20.289062 C 1.011719 -20.277344 0.578125 -19.78125 0.589844 -19.214844 L 0.722656 -13.179688 C 0.734375 -12.613281 1.191406 -12.179688 1.757812 -12.191406 Z M 1.757812 -12.191406 "/></g></g></g><g fill="#000000" fill-opacity="0.302"><g transform="translate(191.259609, 188.329063)"><g><path d="M 2.0625 0.0820312 L 12.140625 0.480469 C 12.707031 0.503906 13.167969 0.0742188 13.191406 -0.492188 L 13.558594 -9.800781 C 13.582031 -10.367188 14.085938 -10.792969 14.652344 -10.769531 L 25.578125 -10.339844 C 30.355469 -10.148438 33.972656 -13.492188 34.160156 -18.265625 L 34.339844 -22.800781 C 34.527344 -27.574219 31.183594 -31.191406 26.410156 -31.382812 L 3.300781 -32.292969 C 2.734375 -32.316406 2.273438 -31.890625 2.25 -31.324219 L 1.050781 -0.972656 C 1.03125 -0.40625 1.496094 0.0585938 2.0625 0.0820312 Z M 14.996094 -20.484375 C 14.429688 -20.507812 14 -20.96875 14.023438 -21.535156 C 14.046875 -22.101562 14.507812 -22.53125 15.074219 -22.507812 L 21.144531 -22.265625 C 21.710938 -22.246094 22.140625 -21.78125 22.117188 -21.214844 C 22.09375 -20.648438 21.632812 -20.222656 21.066406 -20.242188 Z M 14.996094 -20.484375 "/></g></g></g><g fill="#000000" fill-opacity="0.302"><g transform="translate(224.614402, 189.714518)"><g><path d="M 2.054688 0.222656 L 12.078125 1.304688 C 12.644531 1.363281 13.132812 0.96875 13.195312 0.40625 L 13.804688 -5.230469 C 13.863281 -5.796875 14.355469 -6.191406 14.917969 -6.128906 C 15.484375 -6.070312 15.875 -5.539062 15.8125 -4.972656 L 15.207031 0.621094 C 15.148438 1.1875 15.582031 1.683594 16.148438 1.742188 L 26.171875 2.824219 C 26.738281 2.886719 27.226562 2.492188 27.289062 1.925781 L 29.769531 -21.066406 C 30.28125 -25.816406 27.191406 -29.652344 22.441406 -30.167969 L 12.699219 -31.21875 C 7.945312 -31.730469 4.109375 -28.640625 3.597656 -23.890625 L 1.117188 -0.898438 C 1.054688 -0.335938 1.488281 0.160156 2.054688 0.222656 Z M 15.960938 -15.792969 C 15.398438 -15.855469 15.003906 -16.34375 15.0625 -16.910156 L 15.410156 -20.128906 C 15.472656 -20.695312 15.964844 -21.089844 16.527344 -21.027344 C 17.089844 -20.96875 17.484375 -20.476562 17.425781 -19.914062 L 17.078125 -16.691406 C 17.015625 -16.128906 16.527344 -15.734375 15.960938 -15.792969 Z M 15.960938 -15.792969 "/></g></g></g><g fill="#000000" fill-opacity="0.302"><g transform="translate(251.897953, 192.661994)"><g><path d="M 1.996094 0.335938 L 23.964844 4.03125 C 24.523438 4.128906 25.035156 3.761719 25.128906 3.203125 L 26.609375 -5.582031 C 26.703125 -6.144531 26.335938 -6.65625 25.777344 -6.75 L 15.832031 -8.425781 C 15.273438 -8.519531 14.867188 -9.039062 14.960938 -9.597656 L 18.183594 -28.726562 C 18.277344 -29.285156 17.917969 -29.839844 17.359375 -29.933594 L 7.414062 -31.609375 C 6.855469 -31.703125 6.300781 -31.34375 6.207031 -30.785156 L 1.167969 -0.832031 C 1.074219 -0.269531 1.4375 0.242188 1.996094 0.335938 Z M 1.996094 0.335938 "/></g></g></g><g fill="#000000" fill-opacity="0.302"><g transform="translate(276.97401, 196.824263)"><g><path d="M 2.011719 0.460938 L 11.839844 2.722656 C 12.394531 2.847656 12.925781 2.515625 13.054688 1.960938 L 14.324219 -3.5625 C 14.453125 -4.117188 14.984375 -4.449219 15.539062 -4.324219 C 16.089844 -4.195312 16.417969 -3.621094 16.289062 -3.070312 L 15.027344 2.417969 C 14.902344 2.96875 15.273438 3.511719 15.828125 3.640625 L 25.65625 5.898438 C 26.207031 6.027344 26.742188 5.691406 26.871094 5.136719 L 32.050781 -17.398438 C 33.121094 -22.054688 30.507812 -26.230469 25.851562 -27.300781 L 16.296875 -29.5 C 11.640625 -30.570312 7.464844 -27.953125 6.394531 -23.296875 L 1.214844 -0.761719 C 1.085938 -0.207031 1.460938 0.335938 2.011719 0.460938 Z M 17.714844 -13.796875 C 17.164062 -13.921875 16.828125 -14.457031 16.957031 -15.011719 L 17.683594 -18.167969 C 17.808594 -18.71875 18.34375 -19.054688 18.894531 -18.925781 C 19.449219 -18.800781 19.785156 -18.265625 19.65625 -17.714844 L 18.929688 -14.554688 C 18.804688 -14.003906 18.269531 -13.667969 17.714844 -13.796875 Z M 17.714844 -13.796875 "/></g></g></g><g fill="#000000" fill-opacity="0.302"><g transform="translate(303.626043, 202.809914)"><g><path d="M 8.875 2.6875 L 31.011719 9.386719 C 31.550781 9.554688 32.121094 9.21875 32.285156 8.675781 L 34.855469 0.183594 C 35.019531 -0.355469 34.722656 -0.914062 34.179688 -1.078125 L 16.734375 -6.359375 C 16.191406 -6.523438 15.894531 -7.078125 16.058594 -7.621094 L 18.523438 -15.761719 C 18.6875 -16.304688 19.242188 -16.601562 19.785156 -16.4375 L 37.230469 -11.15625 C 37.773438 -10.992188 38.339844 -11.328125 38.503906 -11.871094 L 41.074219 -20.359375 C 41.238281 -20.902344 40.941406 -21.457031 40.398438 -21.621094 L 18.265625 -28.324219 C 13.691406 -29.707031 9.347656 -27.382812 7.964844 -22.808594 L 3.363281 -7.613281 C 1.976562 -3.039062 4.300781 1.300781 8.875 2.6875 Z M 8.875 2.6875 "/></g></g></g><g fill="#000000" fill-opacity="0.302"><g transform="translate(335.499317, 212.413463)"><g><path d="M 1.925781 0.746094 L 30.261719 11.691406 C 30.789062 11.894531 31.367188 11.640625 31.570312 11.109375 L 34.34375 3.933594 C 34.546875 3.402344 34.253906 2.8125 33.726562 2.609375 L 16.726562 -3.960938 C 16.195312 -4.164062 15.941406 -4.738281 16.144531 -5.269531 C 16.351562 -5.796875 16.925781 -6.050781 17.453125 -5.847656 L 32.980469 0.148438 C 33.511719 0.355469 34.085938 0.0976562 34.292969 -0.429688 L 36.773438 -6.851562 C 36.976562 -7.382812 36.683594 -7.972656 36.15625 -8.175781 L 20.664062 -14.160156 C 20.136719 -14.363281 19.882812 -14.941406 20.085938 -15.46875 C 20.289062 -15.996094 20.867188 -16.253906 21.394531 -16.046875 L 38.433594 -9.46875 C 38.960938 -9.261719 39.539062 -9.519531 39.742188 -10.046875 L 42.515625 -17.226562 C 42.71875 -17.753906 42.464844 -18.328125 41.9375 -18.535156 L 13.5625 -29.492188 C 13.035156 -29.699219 12.457031 -29.441406 12.253906 -28.914062 L 1.308594 -0.578125 C 1.105469 -0.0507812 1.398438 0.539062 1.925781 0.746094 Z M 1.925781 0.746094 "/></g></g></g><g fill="#dbc683" fill-opacity="1"><g transform="translate(10.601618, 221.316355)"><g><path d="M 1.882812 -0.742188 L 17.75 -6.992188 C 22.195312 -8.742188 24.160156 -13.261719 22.40625 -17.707031 L 16.589844 -32.476562 C 14.835938 -36.925781 10.320312 -38.886719 5.875 -37.136719 L -9.992188 -30.886719 C -10.519531 -30.679688 -10.769531 -30.101562 -10.5625 -29.574219 L 0.570312 -1.3125 C 0.777344 -0.785156 1.355469 -0.535156 1.882812 -0.742188 Z M 9.773438 -13.863281 C 9.246094 -13.652344 8.667969 -13.90625 8.460938 -14.433594 L 4.15625 -25.359375 C 3.949219 -25.886719 4.199219 -26.464844 4.726562 -26.675781 C 5.253906 -26.882812 5.832031 -26.628906 6.039062 -26.101562 L 10.34375 -15.175781 C 10.554688 -14.648438 10.300781 -14.070312 9.773438 -13.863281 Z M 9.773438 -13.863281 "/></g></g></g><g fill="#dbc683" fill-opacity="1"><g transform="translate(35.964621, 211.17554)"><g><path d="M 1.96875 -0.625 L 30.921875 -9.808594 C 31.460938 -9.980469 31.753906 -10.539062 31.582031 -11.082031 L 29.253906 -18.414062 C 29.082031 -18.957031 28.484375 -19.234375 27.945312 -19.0625 L 10.570312 -13.550781 C 10.03125 -13.378906 9.472656 -13.667969 9.300781 -14.210938 C 9.128906 -14.75 9.417969 -15.308594 9.960938 -15.480469 L 25.824219 -20.515625 C 26.367188 -20.6875 26.65625 -21.246094 26.484375 -21.785156 L 24.402344 -28.347656 C 24.230469 -28.890625 23.632812 -29.167969 23.09375 -28.996094 L 7.265625 -23.972656 C 6.726562 -23.804688 6.164062 -24.09375 5.996094 -24.632812 C 5.824219 -25.171875 6.113281 -25.734375 6.652344 -25.90625 L 24.0625 -31.429688 C 24.605469 -31.597656 24.894531 -32.160156 24.722656 -32.699219 L 22.394531 -40.035156 C 22.222656 -40.574219 21.664062 -40.863281 21.125 -40.691406 L -7.867188 -31.496094 C -8.40625 -31.324219 -8.699219 -30.765625 -8.527344 -30.222656 L 0.660156 -1.269531 C 0.832031 -0.730469 1.429688 -0.453125 1.96875 -0.625 Z M 1.96875 -0.625 "/></g></g></g><g fill="#dbc683" fill-opacity="1"><g transform="translate(67.843797, 201.133548)"><g><path d="M 5.824219 -1.417969 L 21.71875 -5.296875 C 22.074219 -5.382812 22.410156 -5.714844 22.421875 -6.175781 L 23.140625 -19.816406 C 23.152344 -20.277344 23.105469 -20.640625 23 -21.074219 L 19.125 -36.96875 C 18.992188 -37.519531 18.414062 -37.839844 17.863281 -37.703125 L 8.0625 -35.316406 C 7.511719 -35.179688 7.1875 -34.640625 7.320312 -34.089844 L 11.925781 -15.203125 C 12.058594 -14.652344 11.730469 -14.117188 11.179688 -13.980469 C 10.628906 -13.847656 10.09375 -14.175781 9.957031 -14.726562 L 5.351562 -33.613281 C 5.21875 -34.164062 4.640625 -34.480469 4.089844 -34.347656 L -5.707031 -31.957031 C -6.257812 -31.824219 -6.585938 -31.285156 -6.449219 -30.734375 L -2.574219 -14.835938 C -2.449219 -14.328125 -2.34375 -14.058594 -2.121094 -13.65625 L 4.792969 -1.878906 C 5.019531 -1.472656 5.46875 -1.332031 5.824219 -1.417969 Z M 5.824219 -1.417969 "/></g></g></g><g fill="#dbc683" fill-opacity="1"><g transform="translate(94.730277, 194.728972)"><g><path d="M 2.027344 -0.394531 L 11.925781 -2.332031 C 12.480469 -2.441406 12.832031 -2.960938 12.722656 -3.519531 L 6.894531 -33.328125 C 6.785156 -33.886719 6.222656 -34.230469 5.667969 -34.121094 L -4.230469 -32.1875 C -4.785156 -32.078125 -5.136719 -31.554688 -5.027344 -31 L 0.800781 -1.1875 C 0.910156 -0.632812 1.46875 -0.289062 2.027344 -0.394531 Z M 2.027344 -0.394531 "/></g></g></g><g fill="#dbc683" fill-opacity="1"><g transform="translate(107.954363, 191.992843)"><g><path d="M 2.003906 -0.300781 L 24.03125 -3.613281 C 24.589844 -3.695312 24.964844 -4.203125 24.878906 -4.761719 L 23.554688 -13.574219 C 23.472656 -14.136719 22.964844 -14.507812 22.40625 -14.425781 L 12.433594 -12.925781 C 11.871094 -12.84375 11.324219 -13.210938 11.242188 -13.769531 L 8.355469 -32.957031 C 8.273438 -33.515625 7.761719 -33.929688 7.199219 -33.847656 L -2.773438 -32.347656 C -3.332031 -32.261719 -3.75 -31.75 -3.664062 -31.1875 L 0.851562 -1.152344 C 0.933594 -0.589844 1.441406 -0.214844 2.003906 -0.300781 Z M 2.003906 -0.300781 "/></g></g></g><g fill="#dbc683" fill-opacity="1"><g transform="translate(132.97237, 188.064026)"><g><path d="M 2.019531 -0.167969 L 25.0625 -2.09375 C 29.824219 -2.492188 33.007812 -6.253906 32.609375 -11.015625 L 32.230469 -15.535156 C 31.832031 -20.296875 28.070312 -23.480469 23.308594 -23.082031 L 12.371094 -22.167969 C 11.808594 -22.121094 11.324219 -22.527344 11.277344 -23.09375 C 11.230469 -23.65625 11.636719 -24.136719 12.203125 -24.183594 L 30.363281 -25.703125 C 30.929688 -25.75 31.335938 -26.230469 31.289062 -26.796875 L 30.683594 -34.0625 C 30.636719 -34.625 30.15625 -35.03125 29.589844 -34.984375 L 6.542969 -33.058594 C 1.78125 -32.660156 -1.398438 -28.902344 -1 -24.136719 L -0.625 -19.617188 C -0.226562 -14.855469 3.535156 -11.675781 8.296875 -12.074219 L 19.234375 -12.988281 C 19.800781 -13.035156 20.28125 -12.628906 20.328125 -12.0625 C 20.375 -11.496094 19.96875 -11.015625 19.402344 -10.96875 L 1.242188 -9.453125 C 0.675781 -9.402344 0.269531 -8.921875 0.316406 -8.359375 L 0.925781 -1.09375 C 0.972656 -0.527344 1.453125 -0.121094 2.019531 -0.167969 Z M 2.019531 -0.167969 "/></g></g></g><g fill="#dbc683" fill-opacity="1"><g transform="translate(166.348726, 185.432929)"><g><path d="M 1.757812 -12.191406 L 19.980469 -12.589844 C 20.546875 -12.605469 20.980469 -13.097656 20.96875 -13.667969 L 20.835938 -19.699219 C 20.824219 -20.265625 20.367188 -20.703125 19.800781 -20.6875 L 1.582031 -20.289062 C 1.011719 -20.277344 0.578125 -19.78125 0.589844 -19.214844 L 0.722656 -13.179688 C 0.734375 -12.613281 1.191406 -12.179688 1.757812 -12.191406 Z M 1.757812 -12.191406 "/></g></g></g><g fill="#dbc683" fill-opacity="1"><g transform="translate(187.679882, 184.749336)"><g><path d="M 2.0625 0.0820312 L 12.140625 0.480469 C 12.707031 0.503906 13.167969 0.0742188 13.191406 -0.492188 L 13.558594 -9.800781 C 13.582031 -10.367188 14.085938 -10.792969 14.652344 -10.769531 L 25.578125 -10.339844 C 30.355469 -10.148438 33.972656 -13.492188 34.160156 -18.265625 L 34.339844 -22.800781 C 34.527344 -27.574219 31.183594 -31.191406 26.410156 -31.382812 L 3.300781 -32.292969 C 2.734375 -32.316406 2.273438 -31.890625 2.25 -31.324219 L 1.050781 -0.972656 C 1.03125 -0.40625 1.496094 0.0585938 2.0625 0.0820312 Z M 14.996094 -20.484375 C 14.429688 -20.507812 14 -20.96875 14.023438 -21.535156 C 14.046875 -22.101562 14.507812 -22.53125 15.074219 -22.507812 L 21.144531 -22.265625 C 21.710938 -22.246094 22.140625 -21.78125 22.117188 -21.214844 C 22.09375 -20.648438 21.632812 -20.222656 21.066406 -20.242188 Z M 14.996094 -20.484375 "/></g></g></g><g fill="#dbc683" fill-opacity="1"><g transform="translate(221.034661, 186.134791)"><g><path d="M 2.054688 0.222656 L 12.078125 1.304688 C 12.644531 1.363281 13.132812 0.96875 13.195312 0.40625 L 13.804688 -5.230469 C 13.863281 -5.796875 14.355469 -6.191406 14.917969 -6.128906 C 15.484375 -6.070312 15.875 -5.539062 15.8125 -4.972656 L 15.207031 0.621094 C 15.148438 1.1875 15.582031 1.683594 16.148438 1.742188 L 26.171875 2.824219 C 26.738281 2.886719 27.226562 2.492188 27.289062 1.925781 L 29.769531 -21.066406 C 30.28125 -25.816406 27.191406 -29.652344 22.441406 -30.167969 L 12.699219 -31.21875 C 7.945312 -31.730469 4.109375 -28.640625 3.597656 -23.890625 L 1.117188 -0.898438 C 1.054688 -0.335938 1.488281 0.160156 2.054688 0.222656 Z M 15.960938 -15.792969 C 15.398438 -15.855469 15.003906 -16.34375 15.0625 -16.910156 L 15.410156 -20.128906 C 15.472656 -20.695312 15.964844 -21.089844 16.527344 -21.027344 C 17.089844 -20.96875 17.484375 -20.476562 17.425781 -19.914062 L 17.078125 -16.691406 C 17.015625 -16.128906 16.527344 -15.734375 15.960938 -15.792969 Z M 15.960938 -15.792969 "/></g></g></g><g fill="#dbc683" fill-opacity="1"><g transform="translate(248.318226, 189.082267)"><g><path d="M 1.996094 0.335938 L 23.964844 4.03125 C 24.523438 4.128906 25.035156 3.761719 25.128906 3.203125 L 26.609375 -5.582031 C 26.703125 -6.144531 26.335938 -6.65625 25.777344 -6.75 L 15.832031 -8.425781 C 15.273438 -8.519531 14.867188 -9.039062 14.960938 -9.597656 L 18.183594 -28.726562 C 18.277344 -29.285156 17.917969 -29.839844 17.359375 -29.933594 L 7.414062 -31.609375 C 6.855469 -31.703125 6.300781 -31.34375 6.207031 -30.785156 L 1.167969 -0.832031 C 1.074219 -0.269531 1.4375 0.242188 1.996094 0.335938 Z M 1.996094 0.335938 "/></g></g></g><g fill="#dbc683" fill-opacity="1"><g transform="translate(273.394286, 193.244539)"><g><path d="M 2.011719 0.460938 L 11.839844 2.722656 C 12.394531 2.847656 12.925781 2.515625 13.054688 1.960938 L 14.324219 -3.5625 C 14.453125 -4.117188 14.984375 -4.449219 15.539062 -4.324219 C 16.089844 -4.195312 16.417969 -3.621094 16.289062 -3.070312 L 15.027344 2.417969 C 14.902344 2.96875 15.273438 3.511719 15.828125 3.640625 L 25.65625 5.898438 C 26.207031 6.027344 26.742188 5.691406 26.871094 5.136719 L 32.050781 -17.398438 C 33.121094 -22.054688 30.507812 -26.230469 25.851562 -27.300781 L 16.296875 -29.5 C 11.640625 -30.570312 7.464844 -27.953125 6.394531 -23.296875 L 1.214844 -0.761719 C 1.085938 -0.207031 1.460938 0.335938 2.011719 0.460938 Z M 17.714844 -13.796875 C 17.164062 -13.921875 16.828125 -14.457031 16.957031 -15.011719 L 17.683594 -18.167969 C 17.808594 -18.71875 18.34375 -19.054688 18.894531 -18.925781 C 19.449219 -18.800781 19.785156 -18.265625 19.65625 -17.714844 L 18.929688 -14.554688 C 18.804688 -14.003906 18.269531 -13.667969 17.714844 -13.796875 Z M 17.714844 -13.796875 "/></g></g></g><g fill="#dbc683" fill-opacity="1"><g transform="translate(300.046289, 199.230187)"><g><path d="M 8.875 2.6875 L 31.011719 9.386719 C 31.550781 9.554688 32.121094 9.21875 32.285156 8.675781 L 34.855469 0.183594 C 35.019531 -0.355469 34.722656 -0.914062 34.179688 -1.078125 L 16.734375 -6.359375 C 16.191406 -6.523438 15.894531 -7.078125 16.058594 -7.621094 L 18.523438 -15.761719 C 18.6875 -16.304688 19.242188 -16.601562 19.785156 -16.4375 L 37.230469 -11.15625 C 37.773438 -10.992188 38.339844 -11.328125 38.503906 -11.871094 L 41.074219 -20.359375 C 41.238281 -20.902344 40.941406 -21.457031 40.398438 -21.621094 L 18.265625 -28.324219 C 13.691406 -29.707031 9.347656 -27.382812 7.964844 -22.808594 L 3.363281 -7.613281 C 1.976562 -3.039062 4.300781 1.300781 8.875 2.6875 Z M 8.875 2.6875 "/></g></g></g><g fill="#dbc683" fill-opacity="1"><g transform="translate(331.919592, 208.833739)"><g><path d="M 1.925781 0.746094 L 30.261719 11.691406 C 30.789062 11.894531 31.367188 11.640625 31.570312 11.109375 L 34.34375 3.933594 C 34.546875 3.402344 34.253906 2.8125 33.726562 2.609375 L 16.726562 -3.960938 C 16.195312 -4.164062 15.941406 -4.738281 16.144531 -5.269531 C 16.351562 -5.796875 16.925781 -6.050781 17.453125 -5.847656 L 32.980469 0.148438 C 33.511719 0.355469 34.085938 0.0976562 34.292969 -0.429688 L 36.773438 -6.851562 C 36.976562 -7.382812 36.683594 -7.972656 36.15625 -8.175781 L 20.664062 -14.160156 C 20.136719 -14.363281 19.882812 -14.941406 20.085938 -15.46875 C 20.289062 -15.996094 20.867188 -16.253906 21.394531 -16.046875 L 38.433594 -9.46875 C 38.960938 -9.261719 39.539062 -9.519531 39.742188 -10.046875 L 42.515625 -17.226562 C 42.71875 -17.753906 42.464844 -18.328125 41.9375 -18.535156 L 13.5625 -29.492188 C 13.035156 -29.699219 12.457031 -29.441406 12.253906 -28.914062 L 1.308594 -0.578125 C 1.105469 -0.0507812 1.398438 0.539062 1.925781 0.746094 Z M 1.925781 0.746094 "/></g></g></g></svg>